<?xml version="1.0" encoding="utf-8" standalone="no"?>
<!DOCTYPE svg PUBLIC "-//W3C//DTD SVG 1.1//EN"
  "http://www.w3.org/Graphics/SVG/1.1/DTD/svg11.dtd">
<svg xmlns:xlink="http://www.w3.org/1999/xlink" width="720pt" height="405pt" viewBox="0 0 720 405" xmlns="http://www.w3.org/2000/svg" version="1.1">
 <metadata>
  <rdf:RDF xmlns:dc="http://purl.org/dc/elements/1.1/" xmlns:cc="http://creativecommons.org/ns#" xmlns:rdf="http://www.w3.org/1999/02/22-rdf-syntax-ns#">
   <cc:Work>
    <dc:type rdf:resource="http://purl.org/dc/dcmitype/StillImage"/>
    <dc:date>2026-10-08T12:26:07.360984</dc:date>
    <dc:format>image/svg+xml</dc:format>
    <dc:creator>
     <cc:Agent>
      <dc:title>Matplotlib v3.11.2, https://matplotlib.org/</dc:title>
     </cc:Agent>
    </dc:creator>
   </cc:Work>
  </rdf:RDF>
 </metadata>
 <defs>
  <style type="text/css">*{stroke-linejoin: round; stroke-linecap: butt}</style>
 </defs>
 <g id="figure_1">
  <g id="patch_1">
   <path d="M 0 405 
L 720 405 
L 720 0 
L 0 0 
z
" style="fill: #ffffff"/>
  </g>
  <g id="axes_1">
   <g id="patch_2">
    <path d="M 63.197305 353.023359 
L 704.88 353.023359 
L 704.88 32.02125 
L 63.197305 32.02125 
z
" style="fill: #ffffff"/>
   </g>
   <g id="matplotlib.axis_1">
    <g id="xtick_1">
     <g id="line2d_1">
      <path d="M 92.360993 353.023359 
L 92.360993 32.02125 
" clip-path="url(#p9d7383739a)" style="fill: none; stroke: #b0b0b0; stroke-opacity: 0.3; stroke-width: 0.8; stroke-linecap: square"/>
     </g>
     <g id="line2d_2">
      <defs>
       <path id="m8ed24a8bdf" d="M 0 0 
L 0 3.5 
" style="stroke: #000000; stroke-width: 0.8"/>
      </defs>
      <g>
       <use xlink:href="#m8ed24a8bdf" x="92.360993" y="353.023359" style="stroke: #000000; stroke-width: 0.8"/>
      </g>
     </g>
     <g id="text_1">
      <!-- 10.0 -->
      <g transform="translate(80.985993 369.037031) scale(0.13 -0.13)">
       <defs>
        <path id="LiberationSerif-14" d="M 1959 250 
L 2816 166 
L 2816 0 
L 563 0 
L 563 166 
L 1422 250 
L 1422 3669 
L 575 3366 
L 575 3531 
L 1797 4225 
L 1959 4225 
L 1959 250 
z
" transform="scale(0.015625)"/>
        <path id="LiberationSerif-13" d="M 2956 2113 
Q 2956 -63 1581 -63 
Q 919 -63 581 493 
Q 244 1050 244 2113 
Q 244 3153 581 3704 
Q 919 4256 1606 4256 
Q 2269 4256 2612 3711 
Q 2956 3166 2956 2113 
z
M 2381 2113 
Q 2381 3119 2190 3562 
Q 2000 4006 1581 4006 
Q 1175 4006 997 3587 
Q 819 3169 819 2113 
Q 819 1050 1000 617 
Q 1181 184 1581 184 
Q 1994 184 2187 639 
Q 2381 1094 2381 2113 
z
" transform="scale(0.015625)"/>
        <path id="LiberationSerif-11" d="M 1178 288 
Q 1178 134 1070 21 
Q 963 -91 800 -91 
Q 638 -91 530 21 
Q 422 134 422 288 
Q 422 447 531 556 
Q 641 666 800 666 
Q 959 666 1068 556 
Q 1178 447 1178 288 
z
" transform="scale(0.015625)"/>
       </defs>
       <use xlink:href="#LiberationSerif-14"/>
       <use xlink:href="#LiberationSerif-13" transform="translate(50 0)"/>
       <use xlink:href="#LiberationSerif-11" transform="translate(100 0)"/>
       <use xlink:href="#LiberationSerif-13" transform="translate(125 0)"/>
      </g>
     </g>
    </g>
    <g id="xtick_2">
     <g id="line2d_3">
      <path d="M 189.91081 353.023359 
L 189.91081 32.02125 
" clip-path="url(#p9d7383739a)" style="fill: none; stroke: #b0b0b0; stroke-opacity: 0.3; stroke-width: 0.8; stroke-linecap: square"/>
     </g>
     <g id="line2d_4">
      <g>
       <use xlink:href="#m8ed24a8bdf" x="189.91081" y="353.023359" style="stroke: #000000; stroke-width: 0.8"/>
      </g>
     </g>
     <g id="text_2">
      <!-- 10.5 -->
      <g transform="translate(178.53581 369.037031) scale(0.13 -0.13)">
       <defs>
        <path id="LiberationSerif-18" d="M 1516 2450 
Q 2241 2450 2595 2153 
Q 2950 1856 2950 1247 
Q 2950 616 2565 276 
Q 2181 -63 1466 -63 
Q 872 -63 406 72 
L 372 953 
L 578 953 
L 719 366 
Q 856 291 1048 244 
Q 1241 197 1416 197 
Q 1909 197 2142 430 
Q 2375 663 2375 1216 
Q 2375 1603 2275 1801 
Q 2175 2000 1956 2094 
Q 1738 2188 1369 2188 
Q 1084 2188 813 2113 
L 513 2113 
L 513 4191 
L 2638 4191 
L 2638 3713 
L 794 3713 
L 794 2375 
Q 1131 2450 1516 2450 
z
" transform="scale(0.015625)"/>
       </defs>
       <use xlink:href="#LiberationSerif-14"/>
       <use xlink:href="#LiberationSerif-13" transform="translate(50 0)"/>
       <use xlink:href="#LiberationSerif-11" transform="translate(100 0)"/>
       <use xlink:href="#LiberationSerif-18" transform="translate(125 0)"/>
      </g>
     </g>
    </g>
    <g id="xtick_3">
     <g id="line2d_5">
      <path d="M 287.460627 353.023359 
L 287.460627 32.02125 
" clip-path="url(#p9d7383739a)" style="fill: none; stroke: #b0b0b0; stroke-opacity: 0.3; stroke-width: 0.8; stroke-linecap: square"/>
     </g>
     <g id="line2d_6">
      <g>
       <use xlink:href="#m8ed24a8bdf" x="287.460627" y="353.023359" style="stroke: #000000; stroke-width: 0.8"/>
      </g>
     </g>
     <g id="text_3">
      <!-- 11.0 -->
      <g transform="translate(276.32633 369.037031) scale(0.13 -0.13)">
       <use xlink:href="#LiberationSerif-14"/>
       <use xlink:href="#LiberationSerif-14" transform="translate(46.296875 0)"/>
       <use xlink:href="#LiberationSerif-11" transform="translate(96.296875 0)"/>
       <use xlink:href="#LiberationSerif-13" transform="translate(121.296875 0)"/>
      </g>
     </g>
    </g>
    <g id="xtick_4">
     <g id="line2d_7">
      <path d="M 385.010444 353.023359 
L 385.010444 32.02125 
" clip-path="url(#p9d7383739a)" style="fill: none; stroke: #b0b0b0; stroke-opacity: 0.3; stroke-width: 0.8; stroke-linecap: square"/>
     </g>
     <g id="line2d_8">
      <g>
       <use xlink:href="#m8ed24a8bdf" x="385.010444" y="353.023359" style="stroke: #000000; stroke-width: 0.8"/>
      </g>
     </g>
     <g id="text_4">
      <!-- 11.5 -->
      <g transform="translate(373.876147 369.037031) scale(0.13 -0.13)">
       <use xlink:href="#LiberationSerif-14"/>
       <use xlink:href="#LiberationSerif-14" transform="translate(46.296875 0)"/>
       <use xlink:href="#LiberationSerif-11" transform="translate(96.296875 0)"/>
       <use xlink:href="#LiberationSerif-18" transform="translate(121.296875 0)"/>
      </g>
     </g>
    </g>
    <g id="xtick_5">
     <g id="line2d_9">
      <path d="M 482.56026 353.023359 
L 482.56026 32.02125 
" clip-path="url(#p9d7383739a)" style="fill: none; stroke: #b0b0b0; stroke-opacity: 0.3; stroke-width: 0.8; stroke-linecap: square"/>
     </g>
     <g id="line2d_10">
      <g>
       <use xlink:href="#m8ed24a8bdf" x="482.56026" y="353.023359" style="stroke: #000000; stroke-width: 0.8"/>
      </g>
     </g>
     <g id="text_5">
      <!-- 12.0 -->
      <g transform="translate(471.18526 369.037031) scale(0.13 -0.13)">
       <defs>
        <path id="LiberationSerif-15" d="M 2847 0 
L 281 0 
L 281 459 
L 863 988 
Q 1422 1478 1684 1781 
Q 1947 2084 2061 2406 
Q 2175 2728 2175 3144 
Q 2175 3550 1990 3762 
Q 1806 3975 1388 3975 
Q 1222 3975 1047 3929 
Q 872 3884 738 3809 
L 628 3297 
L 422 3297 
L 422 4103 
Q 991 4238 1388 4238 
Q 2075 4238 2420 3952 
Q 2766 3666 2766 3144 
Q 2766 2794 2630 2483 
Q 2494 2172 2212 1864 
Q 1931 1556 1281 1003 
Q 1003 766 691 481 
L 2847 481 
L 2847 0 
z
" transform="scale(0.015625)"/>
       </defs>
       <use xlink:href="#LiberationSerif-14"/>
       <use xlink:href="#LiberationSerif-15" transform="translate(50 0)"/>
       <use xlink:href="#LiberationSerif-11" transform="translate(100 0)"/>
       <use xlink:href="#LiberationSerif-13" transform="translate(125 0)"/>
      </g>
     </g>
    </g>
    <g id="xtick_6">
     <g id="line2d_11">
      <path d="M 580.110077 353.023359 
L 580.110077 32.02125 
" clip-path="url(#p9d7383739a)" style="fill: none; stroke: #b0b0b0; stroke-opacity: 0.3; stroke-width: 0.8; stroke-linecap: square"/>
     </g>
     <g id="line2d_12">
      <g>
       <use xlink:href="#m8ed24a8bdf" x="580.110077" y="353.023359" style="stroke: #000000; stroke-width: 0.8"/>
      </g>
     </g>
     <g id="text_6">
      <!-- 12.5 -->
      <g transform="translate(568.735077 369.037031) scale(0.13 -0.13)">
       <use xlink:href="#LiberationSerif-14"/>
       <use xlink:href="#LiberationSerif-15" transform="translate(50 0)"/>
       <use xlink:href="#LiberationSerif-11" transform="translate(100 0)"/>
       <use xlink:href="#LiberationSerif-18" transform="translate(125 0)"/>
      </g>
     </g>
    </g>
    <g id="xtick_7">
     <g id="line2d_13">
      <path d="M 677.659894 353.023359 
L 677.659894 32.02125 
" clip-path="url(#p9d7383739a)" style="fill: none; stroke: #b0b0b0; stroke-opacity: 0.3; stroke-width: 0.8; stroke-linecap: square"/>
     </g>
     <g id="line2d_14">
      <g>
       <use xlink:href="#m8ed24a8bdf" x="677.659894" y="353.023359" style="stroke: #000000; stroke-width: 0.8"/>
      </g>
     </g>
     <g id="text_7">
      <!-- 13.0 -->
      <g transform="translate(666.284894 369.037031) scale(0.13 -0.13)">
       <defs>
        <path id="LiberationSerif-16" d="M 2950 1141 
Q 2950 575 2562 256 
Q 2175 -63 1466 -63 
Q 872 -63 341 72 
L 306 953 
L 513 953 
L 653 366 
Q 775 297 998 247 
Q 1222 197 1416 197 
Q 1906 197 2140 422 
Q 2375 647 2375 1172 
Q 2375 1584 2159 1798 
Q 1944 2013 1491 2034 
L 1044 2059 
L 1044 2316 
L 1491 2344 
Q 1844 2363 2012 2563 
Q 2181 2763 2181 3169 
Q 2181 3591 1998 3783 
Q 1816 3975 1416 3975 
Q 1250 3975 1069 3929 
Q 888 3884 750 3809 
L 641 3297 
L 434 3297 
L 434 4103 
Q 744 4184 969 4211 
Q 1194 4238 1416 4238 
Q 2759 4238 2759 3206 
Q 2759 2772 2520 2514 
Q 2281 2256 1844 2194 
Q 2413 2128 2681 1867 
Q 2950 1606 2950 1141 
z
" transform="scale(0.015625)"/>
       </defs>
       <use xlink:href="#LiberationSerif-14"/>
       <use xlink:href="#LiberationSerif-16" transform="translate(50 0)"/>
       <use xlink:href="#LiberationSerif-11" transform="translate(100 0)"/>
       <use xlink:href="#LiberationSerif-13" transform="translate(125 0)"/>
      </g>
     </g>
    </g>
    <g id="text_8">
     <!-- Time (s) -->
     <g transform="translate(358.686309 386.251289) scale(0.15 -0.15)">
      <defs>
       <path id="LiberationSerif-37" d="M 984 0 
L 984 166 
L 1650 250 
L 1650 3922 
L 1491 3922 
Q 700 3922 409 3859 
L 325 3206 
L 116 3206 
L 116 4191 
L 3803 4191 
L 3803 3206 
L 3591 3206 
L 3506 3859 
Q 3413 3881 3097 3898 
Q 2781 3916 2406 3916 
L 2253 3916 
L 2253 250 
L 2919 166 
L 2919 0 
L 984 0 
z
" transform="scale(0.015625)"/>
       <path id="LiberationSerif-4c" d="M 1184 3897 
Q 1184 3759 1084 3659 
Q 984 3559 844 3559 
Q 706 3559 606 3659 
Q 506 3759 506 3897 
Q 506 4038 606 4138 
Q 706 4238 844 4238 
Q 984 4238 1084 4138 
Q 1184 4038 1184 3897 
z
M 1153 219 
L 1656 141 
L 1656 0 
L 134 0 
L 134 141 
L 634 219 
L 634 2719 
L 219 2797 
L 219 2938 
L 1153 2938 
L 1153 219 
z
" transform="scale(0.015625)"/>
       <path id="LiberationSerif-50" d="M 1019 2700 
Q 1253 2834 1515 2925 
Q 1778 3016 1978 3016 
Q 2194 3016 2376 2934 
Q 2559 2853 2650 2675 
Q 2891 2809 3214 2912 
Q 3538 3016 3750 3016 
Q 4500 3016 4500 2150 
L 4500 219 
L 4878 141 
L 4878 0 
L 3544 0 
L 3544 141 
L 3981 219 
L 3981 2094 
Q 3981 2631 3481 2631 
Q 3400 2631 3292 2618 
Q 3184 2606 3076 2590 
Q 2969 2575 2870 2554 
Q 2772 2534 2706 2522 
Q 2759 2353 2759 2150 
L 2759 219 
L 3200 141 
L 3200 0 
L 1806 0 
L 1806 141 
L 2241 219 
L 2241 2094 
Q 2241 2353 2108 2492 
Q 1975 2631 1709 2631 
Q 1434 2631 1025 2541 
L 1025 219 
L 1466 141 
L 1466 0 
L 134 0 
L 134 141 
L 506 219 
L 506 2719 
L 134 2797 
L 134 2938 
L 994 2938 
L 1019 2700 
z
" transform="scale(0.015625)"/>
       <path id="LiberationSerif-48" d="M 813 1478 
L 813 1422 
Q 813 991 908 752 
Q 1003 513 1201 388 
Q 1400 263 1722 263 
Q 1891 263 2122 291 
Q 2353 319 2503 353 
L 2503 178 
Q 2353 81 2095 9 
Q 1838 -63 1569 -63 
Q 884 -63 567 306 
Q 250 675 250 1491 
Q 250 2259 572 2637 
Q 894 3016 1491 3016 
Q 2619 3016 2619 1734 
L 2619 1478 
L 813 1478 
z
M 1491 2766 
Q 1166 2766 992 2503 
Q 819 2241 819 1728 
L 2075 1728 
Q 2075 2288 1931 2527 
Q 1788 2766 1491 2766 
z
" transform="scale(0.015625)"/>
       <path id="LiberationSerif-3" transform="scale(0.015625)"/>
       <path id="LiberationSerif-b" d="M 884 1544 
Q 884 731 993 248 
Q 1103 -234 1337 -565 
Q 1572 -897 1925 -1100 
L 1925 -1363 
Q 1306 -1034 957 -645 
Q 609 -256 445 270 
Q 281 797 281 1544 
Q 281 2288 443 2811 
Q 606 3334 953 3721 
Q 1300 4109 1925 4441 
L 1925 4178 
Q 1544 3959 1319 3617 
Q 1094 3275 989 2819 
Q 884 2363 884 1544 
z
" transform="scale(0.015625)"/>
       <path id="LiberationSerif-56" d="M 2259 825 
Q 2259 388 1982 162 
Q 1706 -63 1166 -63 
Q 947 -63 683 -17 
Q 419 28 269 84 
L 269 806 
L 409 806 
L 563 397 
Q 797 184 1172 184 
Q 1778 184 1778 703 
Q 1778 1084 1300 1247 
L 1022 1338 
Q 706 1441 562 1547 
Q 419 1653 341 1808 
Q 263 1963 263 2181 
Q 263 2569 527 2792 
Q 791 3016 1241 3016 
Q 1563 3016 2047 2919 
L 2047 2278 
L 1900 2278 
L 1769 2619 
Q 1603 2766 1247 2766 
Q 994 2766 861 2641 
Q 728 2516 728 2303 
Q 728 2125 848 2003 
Q 969 1881 1213 1800 
Q 1672 1644 1812 1572 
Q 1953 1500 2051 1395 
Q 2150 1291 2204 1156 
Q 2259 1022 2259 825 
z
" transform="scale(0.015625)"/>
       <path id="LiberationSerif-c" d="M 206 -1363 
L 206 -1100 
Q 559 -897 793 -564 
Q 1028 -231 1137 251 
Q 1247 734 1247 1544 
Q 1247 2363 1142 2819 
Q 1038 3275 813 3617 
Q 588 3959 206 4178 
L 206 4441 
Q 831 4106 1178 3720 
Q 1525 3334 1687 2811 
Q 1850 2288 1850 1544 
Q 1850 800 1687 273 
Q 1525 -253 1178 -640 
Q 831 -1028 206 -1363 
z
" transform="scale(0.015625)"/>
      </defs>
      <use xlink:href="#LiberationSerif-37"/>
      <use xlink:href="#LiberationSerif-4c" transform="translate(57.5625 0)"/>
      <use xlink:href="#LiberationSerif-50" transform="translate(85.34375 0)"/>
      <use xlink:href="#LiberationSerif-48" transform="translate(163.125 0)"/>
      <use xlink:href="#LiberationSerif-3" transform="translate(207.515625 0)"/>
      <use xlink:href="#LiberationSerif-b" transform="translate(232.515625 0)"/>
      <use xlink:href="#LiberationSerif-56" transform="translate(265.8125 0)"/>
      <use xlink:href="#LiberationSerif-c" transform="translate(304.734375 0)"/>
     </g>
    </g>
   </g>
   <g id="matplotlib.axis_2">
    <g id="ytick_1">
     <g id="line2d_15">
      <path d="M 63.197305 324.806238 
L 704.88 324.806238 
" clip-path="url(#p9d7383739a)" style="fill: none; stroke: #b0b0b0; stroke-opacity: 0.3; stroke-width: 0.8; stroke-linecap: square"/>
     </g>
     <g id="line2d_16">
      <defs>
       <path id="m8cb46543d1" d="M 0 0 
L -3.5 0 
" style="stroke: #000000; stroke-width: 0.8"/>
      </defs>
      <g>
       <use xlink:href="#m8cb46543d1" x="63.197305" y="324.806238" style="stroke: #000000; stroke-width: 0.8"/>
      </g>
     </g>
     <g id="text_9">
      <!-- 18.6 -->
      <g transform="translate(33.447305 329.313074) scale(0.13 -0.13)">
       <defs>
        <path id="LiberationSerif-1b" d="M 2828 3169 
Q 2828 2825 2661 2586 
Q 2494 2347 2209 2222 
Q 2566 2091 2761 1811 
Q 2956 1531 2956 1131 
Q 2956 538 2622 237 
Q 2288 -63 1581 -63 
Q 244 -63 244 1131 
Q 244 1547 444 1820 
Q 644 2094 984 2222 
Q 713 2347 542 2584 
Q 372 2822 372 3169 
Q 372 3688 689 3972 
Q 1006 4256 1606 4256 
Q 2188 4256 2508 3973 
Q 2828 3691 2828 3169 
z
M 2394 1131 
Q 2394 1631 2198 1856 
Q 2003 2081 1581 2081 
Q 1169 2081 987 1867 
Q 806 1653 806 1131 
Q 806 603 990 393 
Q 1175 184 1581 184 
Q 1997 184 2195 401 
Q 2394 619 2394 1131 
z
M 2266 3169 
Q 2266 3600 2097 3803 
Q 1928 4006 1588 4006 
Q 1256 4006 1095 3809 
Q 934 3613 934 3169 
Q 934 2734 1090 2545 
Q 1247 2356 1588 2356 
Q 1938 2356 2102 2548 
Q 2266 2741 2266 3169 
z
" transform="scale(0.015625)"/>
        <path id="LiberationSerif-19" d="M 3009 1300 
Q 3009 647 2679 292 
Q 2350 -63 1728 -63 
Q 1022 -63 648 487 
Q 275 1038 275 2069 
Q 275 2744 472 3234 
Q 669 3725 1023 3981 
Q 1378 4238 1844 4238 
Q 2300 4238 2753 4128 
L 2753 3406 
L 2547 3406 
L 2438 3834 
Q 2334 3891 2159 3933 
Q 1984 3975 1844 3975 
Q 1388 3975 1133 3533 
Q 878 3091 853 2241 
Q 1363 2509 1875 2509 
Q 2428 2509 2718 2198 
Q 3009 1888 3009 1300 
z
M 1716 184 
Q 2094 184 2262 429 
Q 2431 675 2431 1241 
Q 2431 1753 2270 1981 
Q 2109 2209 1759 2209 
Q 1331 2209 850 2053 
Q 850 1100 1065 642 
Q 1281 184 1716 184 
z
" transform="scale(0.015625)"/>
       </defs>
       <use xlink:href="#LiberationSerif-14"/>
       <use xlink:href="#LiberationSerif-1b" transform="translate(50 0)"/>
       <use xlink:href="#LiberationSerif-11" transform="translate(100 0)"/>
       <use xlink:href="#LiberationSerif-19" transform="translate(125 0)"/>
      </g>
     </g>
    </g>
    <g id="ytick_2">
     <g id="line2d_17">
      <path d="M 63.197305 254.134 
L 704.88 254.134 
" clip-path="url(#p9d7383739a)" style="fill: none; stroke: #b0b0b0; stroke-opacity: 0.3; stroke-width: 0.8; stroke-linecap: square"/>
     </g>
     <g id="line2d_18">
      <g>
       <use xlink:href="#m8cb46543d1" x="63.197305" y="254.134" style="stroke: #000000; stroke-width: 0.8"/>
      </g>
     </g>
     <g id="text_10">
      <!-- 18.8 -->
      <g transform="translate(33.447305 258.640836) scale(0.13 -0.13)">
       <use xlink:href="#LiberationSerif-14"/>
       <use xlink:href="#LiberationSerif-1b" transform="translate(50 0)"/>
       <use xlink:href="#LiberationSerif-11" transform="translate(100 0)"/>
       <use xlink:href="#LiberationSerif-1b" transform="translate(125 0)"/>
      </g>
     </g>
    </g>
    <g id="ytick_3">
     <g id="line2d_19">
      <path d="M 63.197305 183.461761 
L 704.88 183.461761 
" clip-path="url(#p9d7383739a)" style="fill: none; stroke: #b0b0b0; stroke-opacity: 0.3; stroke-width: 0.8; stroke-linecap: square"/>
     </g>
     <g id="line2d_20">
      <g>
       <use xlink:href="#m8cb46543d1" x="63.197305" y="183.461761" style="stroke: #000000; stroke-width: 0.8"/>
      </g>
     </g>
     <g id="text_11">
      <!-- 19.0 -->
      <g transform="translate(33.447305 187.968597) scale(0.13 -0.13)">
       <defs>
        <path id="LiberationSerif-1c" d="M 206 2913 
Q 206 3544 559 3891 
Q 913 4238 1556 4238 
Q 2272 4238 2605 3722 
Q 2938 3206 2938 2106 
Q 2938 1053 2509 495 
Q 2081 -63 1306 -63 
Q 797 -63 372 44 
L 372 769 
L 575 769 
L 684 319 
Q 784 272 953 234 
Q 1122 197 1294 197 
Q 1794 197 2062 636 
Q 2331 1075 2359 1928 
Q 1884 1663 1394 1663 
Q 841 1663 523 1992 
Q 206 2322 206 2913 
z
M 1563 3988 
Q 781 3988 781 2900 
Q 781 2422 968 2194 
Q 1156 1966 1550 1966 
Q 1953 1966 2363 2131 
Q 2363 3091 2173 3539 
Q 1984 3988 1563 3988 
z
" transform="scale(0.015625)"/>
       </defs>
       <use xlink:href="#LiberationSerif-14"/>
       <use xlink:href="#LiberationSerif-1c" transform="translate(50 0)"/>
       <use xlink:href="#LiberationSerif-11" transform="translate(100 0)"/>
       <use xlink:href="#LiberationSerif-13" transform="translate(125 0)"/>
      </g>
     </g>
    </g>
    <g id="ytick_4">
     <g id="line2d_21">
      <path d="M 63.197305 112.789523 
L 704.88 112.789523 
" clip-path="url(#p9d7383739a)" style="fill: none; stroke: #b0b0b0; stroke-opacity: 0.3; stroke-width: 0.8; stroke-linecap: square"/>
     </g>
     <g id="line2d_22">
      <g>
       <use xlink:href="#m8cb46543d1" x="63.197305" y="112.789523" style="stroke: #000000; stroke-width: 0.8"/>
      </g>
     </g>
     <g id="text_12">
      <!-- 19.2 -->
      <g transform="translate(33.447305 117.296359) scale(0.13 -0.13)">
       <use xlink:href="#LiberationSerif-14"/>
       <use xlink:href="#LiberationSerif-1c" transform="translate(50 0)"/>
       <use xlink:href="#LiberationSerif-11" transform="translate(100 0)"/>
       <use xlink:href="#LiberationSerif-15" transform="translate(125 0)"/>
      </g>
     </g>
    </g>
    <g id="ytick_5">
     <g id="line2d_23">
      <path d="M 63.197305 42.117284 
L 704.88 42.117284 
" clip-path="url(#p9d7383739a)" style="fill: none; stroke: #b0b0b0; stroke-opacity: 0.3; stroke-width: 0.8; stroke-linecap: square"/>
     </g>
     <g id="line2d_24">
      <g>
       <use xlink:href="#m8cb46543d1" x="63.197305" y="42.117284" style="stroke: #000000; stroke-width: 0.8"/>
      </g>
     </g>
     <g id="text_13">
      <!-- 19.4 -->
      <g transform="translate(33.447305 46.62412) scale(0.13 -0.13)">
       <defs>
        <path id="LiberationSerif-17" d="M 2531 922 
L 2531 0 
L 1994 0 
L 1994 922 
L 125 922 
L 125 1338 
L 2172 4213 
L 2531 4213 
L 2531 1369 
L 3100 1369 
L 3100 922 
L 2531 922 
z
M 1994 3478 
L 1978 3478 
L 478 1369 
L 1994 1369 
L 1994 3478 
z
" transform="scale(0.015625)"/>
       </defs>
       <use xlink:href="#LiberationSerif-14"/>
       <use xlink:href="#LiberationSerif-1c" transform="translate(50 0)"/>
       <use xlink:href="#LiberationSerif-11" transform="translate(100 0)"/>
       <use xlink:href="#LiberationSerif-17" transform="translate(125 0)"/>
      </g>
     </g>
    </g>
    <g id="text_14">
     <!-- PWM duty (%) -->
     <g transform="translate(26.21 238.766836) rotate(-90) scale(0.15 -0.15)">
      <defs>
       <path id="LiberationSerif-33" d="M 2681 2950 
Q 2681 3466 2440 3687 
Q 2200 3909 1631 3909 
L 1325 3909 
L 1325 1925 
L 1650 1925 
Q 2178 1925 2429 2165 
Q 2681 2406 2681 2950 
z
M 1325 1644 
L 1325 250 
L 1991 166 
L 1991 0 
L 225 0 
L 225 166 
L 722 250 
L 722 3944 
L 184 4025 
L 184 4191 
L 1766 4191 
Q 3303 4191 3303 2956 
Q 3303 2313 2914 1978 
Q 2525 1644 1797 1644 
L 1325 1644 
z
" transform="scale(0.015625)"/>
       <path id="LiberationSerif-3a" d="M 4294 -97 
L 4128 -97 
L 3041 2791 
L 1925 -97 
L 1759 -97 
L 372 3944 
L 6 4025 
L 6 4191 
L 1606 4191 
L 1606 4025 
L 991 3944 
L 1988 991 
L 3116 3897 
L 3256 3897 
L 4344 991 
L 5294 3944 
L 4641 4025 
L 4641 4191 
L 6028 4191 
L 6028 4025 
L 5663 3944 
L 4294 -97 
z
" transform="scale(0.015625)"/>
       <path id="LiberationSerif-30" d="M 2694 0 
L 2584 0 
L 1050 3603 
L 1050 250 
L 1613 166 
L 1613 0 
L 184 0 
L 184 166 
L 722 250 
L 722 3944 
L 184 4025 
L 184 4191 
L 1453 4191 
L 2816 1003 
L 4303 4191 
L 5503 4191 
L 5503 4025 
L 4966 3944 
L 4966 250 
L 5503 166 
L 5503 0 
L 3803 0 
L 3803 166 
L 4366 250 
L 4366 3603 
L 2694 0 
z
" transform="scale(0.015625)"/>
       <path id="LiberationSerif-47" d="M 2259 219 
Q 1906 -63 1434 -63 
Q 231 -63 231 1441 
Q 231 2213 572 2614 
Q 913 3016 1575 3016 
Q 1913 3016 2259 2944 
Q 2241 3047 2241 3463 
L 2241 4225 
L 1747 4300 
L 1747 4441 
L 2759 4441 
L 2759 219 
L 3122 141 
L 3122 0 
L 2297 0 
L 2259 219 
z
M 794 1441 
Q 794 847 994 555 
Q 1194 263 1606 263 
Q 1959 263 2241 384 
L 2241 2706 
Q 1963 2759 1606 2759 
Q 794 2759 794 1441 
z
" transform="scale(0.015625)"/>
       <path id="LiberationSerif-58" d="M 978 838 
Q 978 300 1478 300 
Q 1866 300 2203 397 
L 2203 2719 
L 1759 2797 
L 1759 2938 
L 2719 2938 
L 2719 219 
L 3091 141 
L 3091 0 
L 2234 0 
L 2209 238 
Q 1988 116 1697 26 
Q 1406 -63 1209 -63 
Q 459 -63 459 800 
L 459 2719 
L 84 2797 
L 84 2938 
L 978 2938 
L 978 838 
z
" transform="scale(0.015625)"/>
       <path id="LiberationSerif-57" d="M 1044 -63 
Q 744 -63 595 115 
Q 447 294 447 616 
L 447 2675 
L 63 2675 
L 63 2816 
L 453 2938 
L 769 3603 
L 966 3603 
L 966 2938 
L 1638 2938 
L 1638 2675 
L 966 2675 
L 966 672 
Q 966 469 1058 366 
Q 1150 263 1300 263 
Q 1481 263 1741 313 
L 1741 109 
Q 1631 34 1425 -14 
Q 1219 -63 1044 -63 
z
" transform="scale(0.015625)"/>
       <path id="LiberationSerif-5c" d="M 622 -1381 
Q 378 -1381 141 -1325 
L 141 -691 
L 288 -691 
L 391 -991 
Q 488 -1063 659 -1063 
Q 822 -1063 959 -969 
Q 1097 -875 1211 -690 
Q 1325 -506 1497 -31 
L 378 2719 
L 78 2797 
L 78 2938 
L 1441 2938 
L 1441 2797 
L 978 2713 
L 1772 659 
L 2541 2719 
L 2081 2797 
L 2081 2938 
L 3175 2938 
L 3175 2797 
L 2869 2731 
L 1722 -184 
Q 1519 -700 1369 -925 
Q 1219 -1150 1037 -1265 
Q 856 -1381 622 -1381 
z
" transform="scale(0.015625)"/>
       <path id="LiberationSerif-8" d="M 1375 -63 
L 1031 -63 
L 3994 4256 
L 4341 4256 
L 1375 -63 
z
M 2253 3109 
Q 2253 1947 1222 1947 
Q 719 1947 469 2244 
Q 219 2541 219 3109 
Q 219 4256 1241 4256 
Q 1738 4256 1995 3968 
Q 2253 3681 2253 3109 
z
M 1766 3109 
Q 1766 3584 1636 3804 
Q 1506 4025 1222 4025 
Q 950 4025 826 3817 
Q 703 3609 703 3109 
Q 703 2597 828 2386 
Q 953 2175 1222 2175 
Q 1503 2175 1634 2398 
Q 1766 2622 1766 3109 
z
M 5113 1081 
Q 5113 -84 4084 -84 
Q 3581 -84 3329 212 
Q 3078 509 3078 1081 
Q 3078 1638 3331 1933 
Q 3584 2228 4103 2228 
Q 4600 2228 4856 1940 
Q 5113 1653 5113 1081 
z
M 4628 1081 
Q 4628 1556 4498 1776 
Q 4369 1997 4084 1997 
Q 3813 1997 3689 1789 
Q 3566 1581 3566 1081 
Q 3566 569 3691 358 
Q 3816 147 4084 147 
Q 4366 147 4497 370 
Q 4628 594 4628 1081 
z
" transform="scale(0.015625)"/>
      </defs>
      <use xlink:href="#LiberationSerif-33"/>
      <use xlink:href="#LiberationSerif-3a" transform="translate(55.609375 0)"/>
      <use xlink:href="#LiberationSerif-30" transform="translate(150 0)"/>
      <use xlink:href="#LiberationSerif-3" transform="translate(238.921875 0)"/>
      <use xlink:href="#LiberationSerif-47" transform="translate(263.921875 0)"/>
      <use xlink:href="#LiberationSerif-58" transform="translate(313.921875 0)"/>
      <use xlink:href="#LiberationSerif-57" transform="translate(363.921875 0)"/>
      <use xlink:href="#LiberationSerif-5c" transform="translate(391.703125 0)"/>
      <use xlink:href="#LiberationSerif-3" transform="translate(441.703125 0)"/>
      <use xlink:href="#LiberationSerif-b" transform="translate(466.703125 0)"/>
      <use xlink:href="#LiberationSerif-8" transform="translate(500 0)"/>
      <use xlink:href="#LiberationSerif-c" transform="translate(583.296875 0)"/>
     </g>
    </g>
   </g>
   <g id="line2d_25">
    <path d="M 92.3647 158.005949 
L 94.315696 149.37686 
L 96.266693 149.37686 
L 98.217884 192.522305 
L 100.16888 218.409572 
L 102.122998 227.038661 
L 104.076531 244.296838 
L 106.022455 244.296838 
L 107.972866 252.925927 
L 109.923862 278.813194 
L 111.875054 278.813194 
L 113.82566 261.555016 
L 115.776656 227.038661 
L 117.727652 158.005949 
L 119.678649 158.005949 
L 121.629645 149.37686 
L 125.531443 218.409572 
L 127.482439 218.409572 
L 129.433435 244.296838 
L 133.335233 244.296838 
L 135.286229 270.184105 
L 137.237616 270.184105 
L 139.188807 261.555016 
L 141.139608 218.409572 
L 143.0908 158.005949 
L 146.992402 140.747771 
L 150.894005 227.038661 
L 152.847537 227.038661 
L 154.796973 244.296838 
L 156.747774 235.667749 
L 158.698575 252.925927 
L 162.601739 270.184105 
L 164.55176 252.925927 
L 166.502561 218.409572 
L 168.453362 158.005949 
L 172.355355 140.747771 
L 174.305961 183.893216 
L 176.257542 218.409572 
L 178.208539 218.409572 
L 180.159535 244.296838 
L 182.110336 235.667749 
L 184.061333 244.296838 
L 186.012329 261.555016 
L 187.96352 270.184105 
L 189.914517 261.555016 
L 191.865318 227.038661 
L 193.81768 166.635038 
L 195.770237 140.747771 
L 197.718307 140.747771 
L 199.669303 183.893216 
L 201.6203 209.780483 
L 203.571101 218.409572 
L 205.522097 235.667749 
L 207.473094 227.038661 
L 209.42409 252.925927 
L 211.375086 270.184105 
L 215.27942 270.184105 
L 221.130458 140.747771 
L 223.081455 140.747771 
L 226.983447 209.780483 
L 228.93776 209.780483 
L 230.888952 235.667749 
L 232.840143 235.667749 
L 234.788603 244.296838 
L 236.738624 270.184105 
L 238.692157 270.184105 
L 240.640812 261.555016 
L 242.591613 209.780483 
L 244.542414 166.635038 
L 248.445382 132.118682 
L 250.396184 175.264127 
L 252.346595 209.780483 
L 254.297396 218.409572 
L 256.247807 235.667749 
L 258.199389 227.038661 
L 260.150385 244.296838 
L 262.101186 270.184105 
L 264.055694 261.555016 
L 266.006691 261.555016 
L 267.956711 218.409572 
L 269.905562 166.635038 
L 271.856363 140.747771 
L 273.807749 123.489593 
L 275.758551 166.635038 
L 277.709352 192.522305 
L 283.563707 218.409572 
L 285.514313 235.667749 
L 287.464139 261.555016 
L 289.415135 261.555016 
L 291.366717 270.184105 
L 293.317518 218.409572 
L 297.220486 132.118682 
L 299.170507 114.860504 
L 301.121308 158.005949 
L 305.023301 209.780483 
L 306.977419 218.409572 
L 308.927635 218.409572 
L 310.876485 244.296838 
L 312.828457 261.555016 
L 316.729474 261.555016 
L 318.68008 227.038661 
L 320.631271 183.893216 
L 322.581487 149.37686 
L 324.533264 132.118682 
L 326.48348 175.264127 
L 328.435257 201.151394 
L 330.385473 218.409572 
L 332.337054 227.038661 
L 334.287465 218.409572 
L 336.241193 244.296838 
L 338.190629 261.555016 
L 342.091451 278.813194 
L 344.043032 244.296838 
L 345.99637 183.893216 
L 347.945415 149.37686 
L 349.895631 132.118682 
L 351.847213 175.264127 
L 353.797819 201.151394 
L 355.74901 218.409572 
L 357.702543 227.038661 
L 359.651003 218.409572 
L 361.602194 252.925927 
L 363.552801 261.555016 
L 365.503797 278.813194 
L 367.454793 261.555016 
L 369.405985 235.667749 
L 371.356786 201.151394 
L 373.308953 149.37686 
L 375.262486 132.118682 
L 377.211921 158.005949 
L 379.160771 201.151394 
L 383.062764 235.667749 
L 385.015126 227.038661 
L 386.964952 261.555016 
L 388.915558 261.555016 
L 390.866944 278.813194 
L 392.816965 270.184105 
L 396.720324 201.151394 
L 398.67132 149.37686 
L 400.622121 132.118682 
L 402.572922 158.005949 
L 404.524114 201.151394 
L 406.47511 218.409572 
L 408.426107 227.038661 
L 410.377883 227.038661 
L 412.328294 261.555016 
L 414.279096 270.184105 
L 416.230092 287.442283 
L 418.180893 270.184105 
L 420.133645 244.296838 
L 424.036028 158.005949 
L 425.986829 132.118682 
L 427.935875 158.005949 
L 429.888627 201.151394 
L 431.838258 218.409572 
L 433.79023 227.038661 
L 435.740055 218.409572 
L 437.690857 252.925927 
L 439.641658 261.555016 
L 441.593044 278.813194 
L 443.545601 278.813194 
L 445.495232 235.667749 
L 447.446033 201.151394 
L 449.396835 149.37686 
L 451.348221 132.118682 
L 453.299608 158.005949 
L 457.20121 227.038661 
L 459.154743 235.667749 
L 461.104764 235.667749 
L 463.054979 261.555016 
L 465.004805 278.813194 
L 466.955606 287.442283 
L 468.906798 278.813194 
L 470.85877 235.667749 
L 472.808986 209.780483 
L 474.759592 140.747771 
L 476.710588 123.489593 
L 478.661584 158.005949 
L 480.612581 183.893216 
L 482.563577 227.038661 
L 484.514574 235.667749 
L 486.46557 235.667749 
L 488.417542 252.925927 
L 490.368148 261.555016 
L 492.32012 278.813194 
L 494.269555 270.184105 
L 498.171938 201.151394 
L 500.12313 149.37686 
L 502.076077 132.118682 
L 505.975923 183.893216 
L 507.92809 227.038661 
L 509.879867 235.667749 
L 511.830278 235.667749 
L 513.782835 252.925927 
L 515.731295 252.925927 
L 517.681511 278.813194 
L 519.632508 270.184105 
L 521.583504 235.667749 
L 523.5345 209.780483 
L 525.485497 149.37686 
L 527.436493 132.118682 
L 529.387489 149.37686 
L 531.338486 183.893216 
L 533.290067 227.038661 
L 535.240868 218.409572 
L 537.191084 227.038661 
L 541.095808 261.555016 
L 543.045049 287.442283 
L 544.99546 278.813194 
L 546.946456 235.667749 
L 548.897453 201.151394 
L 550.848644 158.005949 
L 552.799445 132.118682 
L 554.750442 149.37686 
L 556.701243 175.264127 
L 558.652434 218.409572 
L 562.560475 235.667749 
L 564.505814 252.925927 
L 566.45642 252.925927 
L 568.407611 287.442283 
L 570.358607 278.813194 
L 572.309604 244.296838 
L 574.260405 201.151394 
L 576.211401 149.37686 
L 578.162398 132.118682 
L 580.11437 149.37686 
L 582.064585 183.893216 
L 584.015582 227.038661 
L 589.868571 252.925927 
L 591.819567 252.925927 
L 593.770368 278.813194 
L 595.721365 252.925927 
L 597.672361 244.296838 
L 601.574354 158.005949 
L 603.525155 140.747771 
L 605.477322 149.37686 
L 607.427733 192.522305 
L 609.378924 218.409572 
L 611.329531 235.667749 
L 615.231718 235.667749 
L 617.18408 244.296838 
L 619.135272 278.813194 
L 621.084902 270.184105 
L 623.035704 252.925927 
L 624.988456 209.780483 
L 626.937696 158.005949 
L 628.890253 149.37686 
L 630.839494 149.37686 
L 632.790295 192.522305 
L 634.741291 227.038661 
L 638.646406 244.296838 
L 640.596427 244.296838 
L 642.547033 252.925927 
L 644.497249 278.813194 
L 646.44766 270.184105 
L 648.399241 244.296838 
L 650.349262 209.780483 
L 652.300649 158.005949 
L 656.204202 140.747771 
L 658.155394 192.522305 
L 660.105024 227.038661 
L 662.05563 235.667749 
L 664.007017 227.038661 
L 665.958208 235.667749 
L 667.908815 235.667749 
L 669.858835 270.184105 
L 671.810612 270.184105 
L 673.760828 244.296838 
L 675.712605 209.780483 
L 675.712605 209.780483 
" clip-path="url(#p9d7383739a)" style="fill: none; stroke: #e08a00; stroke-width: 2; stroke-linecap: square"/>
   </g>
   <g id="patch_3">
    <path d="M 63.197305 353.023359 
L 63.197305 32.02125 
" style="fill: none; stroke: #000000; stroke-width: 0.8; stroke-linejoin: miter; stroke-linecap: square"/>
   </g>
   <g id="patch_4">
    <path d="M 704.88 353.023359 
L 704.88 32.02125 
" style="fill: none; stroke: #000000; stroke-width: 0.8; stroke-linejoin: miter; stroke-linecap: square"/>
   </g>
   <g id="patch_5">
    <path d="M 63.197305 353.023359 
L 704.88 353.023359 
" style="fill: none; stroke: #000000; stroke-width: 0.8; stroke-linejoin: miter; stroke-linecap: square"/>
   </g>
   <g id="patch_6">
    <path d="M 63.197305 32.02125 
L 704.88 32.02125 
" style="fill: none; stroke: #000000; stroke-width: 0.8; stroke-linejoin: miter; stroke-linecap: square"/>
   </g>
   <g id="text_15">
    <!-- B1: α 0.5  →  PWM jitter 0.075 %  (−41 %) -->
    <g transform="translate(63.197305 26.02125) scale(0.15 -0.15)">
     <defs>
      <path id="LiberationSerif-Bold-25" d="M 2744 3156 
Q 2744 3522 2586 3684 
Q 2428 3847 2066 3847 
L 1631 3847 
L 1631 2388 
L 2091 2388 
Q 2425 2388 2584 2563 
Q 2744 2738 2744 3156 
z
M 3059 1222 
Q 3059 1638 2851 1841 
Q 2644 2044 2172 2044 
L 1631 2044 
L 1631 344 
Q 2081 325 2341 325 
Q 2706 325 2882 547 
Q 3059 769 3059 1222 
z
M 106 0 
L 106 228 
L 647 313 
L 647 3881 
L 106 3963 
L 106 4191 
L 2141 4191 
Q 2975 4191 3372 3967 
Q 3769 3744 3769 3244 
Q 3769 2869 3534 2597 
Q 3300 2325 2906 2241 
Q 3491 2181 3791 1923 
Q 4091 1666 4091 1222 
Q 4091 613 3641 297 
Q 3191 -19 2350 -19 
L 925 0 
L 106 0 
z
" transform="scale(0.015625)"/>
      <path id="LiberationSerif-Bold-14" d="M 2141 344 
L 2869 269 
L 2869 0 
L 513 0 
L 513 269 
L 1238 344 
L 1238 3503 
L 516 3266 
L 516 3531 
L 1697 4225 
L 2141 4225 
L 2141 344 
z
" transform="scale(0.015625)"/>
      <path id="LiberationSerif-Bold-1d" d="M 1041 -91 
Q 822 -91 673 59 
Q 525 209 525 428 
Q 525 647 673 797 
Q 822 947 1041 947 
Q 1256 947 1407 797 
Q 1559 647 1559 428 
Q 1559 213 1409 61 
Q 1259 -91 1041 -91 
z
M 1041 1963 
Q 822 1963 673 2113 
Q 525 2263 525 2481 
Q 525 2700 670 2850 
Q 816 3000 1041 3000 
Q 1263 3000 1411 2848 
Q 1559 2697 1559 2481 
Q 1559 2266 1409 2114 
Q 1259 1963 1041 1963 
z
" transform="scale(0.015625)"/>
      <path id="LiberationSerif-Bold-3" transform="scale(0.015625)"/>
      <path id="LiberationSerif-Bold-363" d="M 1338 -63 
Q 822 -63 528 329 
Q 234 722 234 1416 
Q 234 2172 590 2594 
Q 947 3016 1544 3016 
Q 2188 3016 2459 2328 
L 2478 2328 
L 2622 2938 
L 3506 2938 
L 3506 2813 
Q 3281 2450 3013 1509 
Q 3097 1034 3170 773 
Q 3244 513 3347 281 
L 3497 234 
L 3497 0 
L 2503 0 
Q 2406 256 2334 684 
L 2316 684 
Q 2094 281 1864 109 
Q 1634 -63 1338 -63 
z
M 1647 2653 
Q 1394 2653 1273 2358 
Q 1153 2063 1153 1438 
Q 1153 947 1254 667 
Q 1356 388 1547 388 
Q 1759 388 1948 663 
Q 2138 938 2278 1481 
Q 2222 2053 2061 2353 
Q 1900 2653 1647 2653 
z
" transform="scale(0.015625)"/>
      <path id="LiberationSerif-Bold-13" d="M 2956 2113 
Q 2956 -63 1581 -63 
Q 919 -63 581 493 
Q 244 1050 244 2113 
Q 244 3153 581 3704 
Q 919 4256 1606 4256 
Q 2269 4256 2612 3711 
Q 2956 3166 2956 2113 
z
M 2041 2113 
Q 2041 3088 1931 3514 
Q 1822 3941 1588 3941 
Q 1356 3941 1257 3528 
Q 1159 3116 1159 2113 
Q 1159 1094 1259 672 
Q 1359 250 1588 250 
Q 1819 250 1930 683 
Q 2041 1116 2041 2113 
z
" transform="scale(0.015625)"/>
      <path id="LiberationSerif-Bold-11" d="M 800 -91 
Q 584 -91 432 59 
Q 281 209 281 428 
Q 281 644 431 795 
Q 581 947 800 947 
Q 1016 947 1167 797 
Q 1319 647 1319 428 
Q 1319 213 1169 61 
Q 1019 -91 800 -91 
z
" transform="scale(0.015625)"/>
      <path id="LiberationSerif-Bold-18" d="M 1500 2478 
Q 2244 2478 2605 2172 
Q 2966 1866 2966 1247 
Q 2966 616 2573 276 
Q 2181 -63 1450 -63 
Q 869 -63 294 63 
L 256 1078 
L 544 1078 
L 706 406 
Q 828 338 1006 295 
Q 1184 253 1328 253 
Q 2047 253 2047 1216 
Q 2047 1716 1864 1939 
Q 1681 2163 1281 2163 
Q 1059 2163 875 2081 
L 778 2041 
L 466 2041 
L 466 4191 
L 2653 4191 
L 2653 3494 
L 813 3494 
L 813 2394 
Q 1194 2478 1500 2478 
z
" transform="scale(0.015625)"/>
      <path id="LiberationSerif-Bold-846" d="M 4397 1197 
Q 4219 1406 4025 1813 
L 4250 1813 
Q 4647 1347 5094 1119 
L 5094 1006 
Q 4647 778 4250 313 
L 4025 313 
Q 4219 719 4397 928 
L 1306 928 
L 1306 1197 
L 4397 1197 
z
" transform="scale(0.015625)"/>
      <path id="LiberationSerif-Bold-33" d="M 2722 2950 
Q 2722 3450 2536 3648 
Q 2350 3847 1881 3847 
L 1634 3847 
L 1634 1988 
L 1894 1988 
Q 2328 1988 2525 2206 
Q 2722 2425 2722 2950 
z
M 1634 1644 
L 1634 313 
L 2331 228 
L 2331 0 
L 150 0 
L 150 228 
L 647 313 
L 647 3881 
L 109 3963 
L 109 4191 
L 1956 4191 
Q 2847 4191 3287 3892 
Q 3728 3594 3728 2956 
Q 3728 1644 2197 1644 
L 1634 1644 
z
" transform="scale(0.015625)"/>
      <path id="LiberationSerif-Bold-3a" d="M 4691 -97 
L 4306 -97 
L 3263 2488 
L 2228 -97 
L 1844 -97 
L 456 3881 
L 91 3963 
L 91 4191 
L 1972 4191 
L 1972 3963 
L 1481 3881 
L 2375 1384 
L 3356 3834 
L 3747 3834 
L 4731 1391 
L 5472 3881 
L 4944 3963 
L 4944 4191 
L 6300 4191 
L 6300 3963 
L 5934 3881 
L 4691 -97 
z
" transform="scale(0.015625)"/>
      <path id="LiberationSerif-Bold-30" d="M 2756 0 
L 2584 0 
L 1038 3541 
L 1038 313 
L 1600 228 
L 1600 0 
L 109 0 
L 109 228 
L 647 313 
L 647 3881 
L 109 3963 
L 109 4191 
L 1756 4191 
L 2953 1434 
L 4175 4191 
L 5856 4191 
L 5856 3963 
L 5319 3881 
L 5319 313 
L 5856 228 
L 5856 0 
L 3772 0 
L 3772 228 
L 4334 313 
L 4334 3541 
L 2756 0 
z
" transform="scale(0.015625)"/>
      <path id="LiberationSerif-Bold-4d" d="M 1728 3963 
Q 1728 3763 1589 3622 
Q 1450 3481 1250 3481 
Q 1050 3481 909 3620 
Q 769 3759 769 3963 
Q 769 4159 908 4300 
Q 1047 4441 1250 4441 
Q 1447 4441 1587 4302 
Q 1728 4163 1728 3963 
z
M 1703 -122 
Q 1703 -709 1386 -1036 
Q 1069 -1363 484 -1363 
Q 206 -1363 -53 -1306 
L -53 -603 
L 147 -603 
L 281 -959 
Q 356 -1019 434 -1019 
Q 603 -1019 701 -811 
Q 800 -603 800 -222 
L 800 2625 
L 281 2731 
L 281 2938 
L 1703 2938 
L 1703 -122 
z
" transform="scale(0.015625)"/>
      <path id="LiberationSerif-Bold-4c" d="M 1363 281 
L 1684 206 
L 1684 0 
L 141 0 
L 141 206 
L 459 281 
L 459 2656 
L 159 2731 
L 159 2938 
L 1363 2938 
L 1363 281 
z
M 428 3963 
Q 428 4166 570 4303 
Q 713 4441 909 4441 
Q 1109 4441 1248 4302 
Q 1388 4163 1388 3963 
Q 1388 3766 1250 3623 
Q 1113 3481 909 3481 
Q 709 3481 568 3620 
Q 428 3759 428 3963 
z
" transform="scale(0.015625)"/>
      <path id="LiberationSerif-Bold-57" d="M 1369 -63 
Q 947 -63 717 128 
Q 488 319 488 678 
L 488 2613 
L 103 2613 
L 103 2816 
L 556 2938 
L 922 3603 
L 1391 3603 
L 1391 2938 
L 2009 2938 
L 2009 2613 
L 1391 2613 
L 1391 734 
Q 1391 531 1475 428 
Q 1559 325 1697 325 
Q 1863 325 2103 375 
L 2103 109 
Q 2009 44 1782 -9 
Q 1556 -63 1369 -63 
z
" transform="scale(0.015625)"/>
      <path id="LiberationSerif-Bold-48" d="M 1544 3009 
Q 2141 3009 2408 2690 
Q 2675 2372 2675 1700 
L 2675 1444 
L 1134 1444 
L 1134 1394 
Q 1134 928 1209 731 
Q 1284 534 1453 431 
Q 1622 328 1916 328 
Q 2191 328 2609 419 
L 2609 178 
Q 2438 75 2164 8 
Q 1891 -59 1631 -59 
Q 909 -59 564 317 
Q 219 694 219 1484 
Q 219 2253 548 2631 
Q 878 3009 1544 3009 
z
M 1509 2694 
Q 1322 2694 1230 2491 
Q 1138 2288 1138 1772 
L 1819 1772 
Q 1819 2191 1791 2361 
Q 1763 2531 1695 2612 
Q 1628 2694 1509 2694 
z
" transform="scale(0.015625)"/>
      <path id="LiberationSerif-Bold-55" d="M 1441 2328 
Q 1778 2703 2045 2867 
Q 2313 3031 2534 3031 
L 2703 3031 
L 2703 1959 
L 2528 1959 
L 2344 2353 
Q 2147 2353 1897 2267 
Q 1647 2181 1456 2066 
L 1456 281 
L 1928 206 
L 1928 0 
L 172 0 
L 172 206 
L 553 281 
L 553 2656 
L 172 2731 
L 172 2938 
L 1406 2938 
L 1441 2328 
z
" transform="scale(0.015625)"/>
      <path id="LiberationSerif-Bold-1a" d="M 638 2994 
L 366 2994 
L 366 4191 
L 3044 4191 
L 3044 3944 
L 1416 0 
L 669 0 
L 2434 3494 
L 781 3494 
L 638 2994 
z
" transform="scale(0.015625)"/>
      <path id="LiberationSerif-Bold-8" d="M 2000 -63 
L 1531 -63 
L 4494 4256 
L 4966 4256 
L 2000 -63 
z
M 2691 3109 
Q 2691 1947 1659 1947 
Q 1156 1947 906 2244 
Q 656 2541 656 3109 
Q 656 4256 1678 4256 
Q 2175 4256 2433 3968 
Q 2691 3681 2691 3109 
z
M 2016 3109 
Q 2016 3566 1930 3764 
Q 1844 3963 1659 3963 
Q 1484 3963 1406 3772 
Q 1328 3581 1328 3109 
Q 1328 2625 1408 2431 
Q 1488 2238 1659 2238 
Q 1841 2238 1928 2441 
Q 2016 2644 2016 3109 
z
M 5800 1081 
Q 5800 -84 4772 -84 
Q 4269 -84 4017 212 
Q 3766 509 3766 1081 
Q 3766 1638 4019 1933 
Q 4272 2228 4791 2228 
Q 5288 2228 5544 1940 
Q 5800 1653 5800 1081 
z
M 5128 1081 
Q 5128 1538 5042 1736 
Q 4956 1934 4772 1934 
Q 4597 1934 4519 1743 
Q 4441 1553 4441 1081 
Q 4441 597 4520 403 
Q 4600 209 4772 209 
Q 4953 209 5040 412 
Q 5128 616 5128 1081 
z
" transform="scale(0.015625)"/>
      <path id="LiberationSerif-Bold-b" d="M 1134 1544 
Q 1134 803 1214 350 
Q 1294 -103 1467 -447 
Q 1641 -791 1925 -1006 
L 1925 -1363 
Q 1306 -1034 957 -645 
Q 609 -256 445 270 
Q 281 797 281 1547 
Q 281 2291 445 2816 
Q 609 3341 957 3728 
Q 1306 4116 1925 4441 
L 1925 4084 
Q 1641 3869 1469 3528 
Q 1297 3188 1215 2734 
Q 1134 2281 1134 1544 
z
" transform="scale(0.015625)"/>
      <path id="LiberationSerif-Bold-850" d="M 3313 2347 
L 3313 1900 
L 338 1900 
L 338 2347 
L 3313 2347 
z
" transform="scale(0.015625)"/>
      <path id="LiberationSerif-Bold-17" d="M 2663 828 
L 2663 0 
L 1822 0 
L 1822 828 
L 88 828 
L 88 1338 
L 1975 4213 
L 2663 4213 
L 2663 1469 
L 3081 1469 
L 3081 828 
L 2663 828 
z
M 1822 2709 
Q 1822 3059 1853 3372 
L 606 1469 
L 1822 1469 
L 1822 2709 
z
" transform="scale(0.015625)"/>
      <path id="LiberationSerif-Bold-c" d="M 206 -1363 
L 206 -1006 
Q 491 -788 664 -444 
Q 838 -100 917 358 
Q 997 816 997 1544 
Q 997 2284 915 2737 
Q 834 3191 662 3528 
Q 491 3866 206 4084 
L 206 4441 
Q 831 4106 1178 3720 
Q 1525 3334 1687 2811 
Q 1850 2288 1850 1547 
Q 1850 800 1687 273 
Q 1525 -253 1176 -642 
Q 828 -1031 206 -1363 
z
" transform="scale(0.015625)"/>
     </defs>
     <use xlink:href="#LiberationSerif-Bold-25"/>
     <use xlink:href="#LiberationSerif-Bold-14" transform="translate(66.703125 0)"/>
     <use xlink:href="#LiberationSerif-Bold-1d" transform="translate(116.703125 0)"/>
     <use xlink:href="#LiberationSerif-Bold-3" transform="translate(150 0)"/>
     <use xlink:href="#LiberationSerif-Bold-363" transform="translate(175 0)"/>
     <use xlink:href="#LiberationSerif-Bold-3" transform="translate(230.8125 0)"/>
     <use xlink:href="#LiberationSerif-Bold-13" transform="translate(255.8125 0)"/>
     <use xlink:href="#LiberationSerif-Bold-11" transform="translate(305.8125 0)"/>
     <use xlink:href="#LiberationSerif-Bold-18" transform="translate(330.8125 0)"/>
     <use xlink:href="#LiberationSerif-Bold-3" transform="translate(380.8125 0)"/>
     <use xlink:href="#LiberationSerif-Bold-3" transform="translate(405.8125 0)"/>
     <use xlink:href="#LiberationSerif-Bold-846" transform="translate(430.8125 0)"/>
     <use xlink:href="#LiberationSerif-Bold-3" transform="translate(530.8125 0)"/>
     <use xlink:href="#LiberationSerif-Bold-3" transform="translate(555.8125 0)"/>
     <use xlink:href="#LiberationSerif-Bold-33" transform="translate(580.8125 0)"/>
     <use xlink:href="#LiberationSerif-Bold-3a" transform="translate(641.890625 0)"/>
     <use xlink:href="#LiberationSerif-Bold-30" transform="translate(741.890625 0)"/>
     <use xlink:href="#LiberationSerif-Bold-3" transform="translate(836.28125 0)"/>
     <use xlink:href="#LiberationSerif-Bold-4d" transform="translate(861.28125 0)"/>
     <use xlink:href="#LiberationSerif-Bold-4c" transform="translate(894.578125 0)"/>
     <use xlink:href="#LiberationSerif-Bold-57" transform="translate(922.359375 0)"/>
     <use xlink:href="#LiberationSerif-Bold-57" transform="translate(955.65625 0)"/>
     <use xlink:href="#LiberationSerif-Bold-48" transform="translate(988.953125 0)"/>
     <use xlink:href="#LiberationSerif-Bold-55" transform="translate(1033.34375 0)"/>
     <use xlink:href="#LiberationSerif-Bold-3" transform="translate(1075.921875 0)"/>
     <use xlink:href="#LiberationSerif-Bold-13" transform="translate(1100.921875 0)"/>
     <use xlink:href="#LiberationSerif-Bold-11" transform="translate(1150.921875 0)"/>
     <use xlink:href="#LiberationSerif-Bold-13" transform="translate(1175.921875 0)"/>
     <use xlink:href="#LiberationSerif-Bold-1a" transform="translate(1225.921875 0)"/>
     <use xlink:href="#LiberationSerif-Bold-18" transform="translate(1275.921875 0)"/>
     <use xlink:href="#LiberationSerif-Bold-3" transform="translate(1325.921875 0)"/>
     <use xlink:href="#LiberationSerif-Bold-8" transform="translate(1350.921875 0)"/>
     <use xlink:href="#LiberationSerif-Bold-3" transform="translate(1450.921875 0)"/>
     <use xlink:href="#LiberationSerif-Bold-3" transform="translate(1475.921875 0)"/>
     <use xlink:href="#LiberationSerif-Bold-b" transform="translate(1500.921875 0)"/>
     <use xlink:href="#LiberationSerif-Bold-850" transform="translate(1534.21875 0)"/>
     <use xlink:href="#LiberationSerif-Bold-17" transform="translate(1591.203125 0)"/>
     <use xlink:href="#LiberationSerif-Bold-14" transform="translate(1641.203125 0)"/>
     <use xlink:href="#LiberationSerif-Bold-3" transform="translate(1691.203125 0)"/>
     <use xlink:href="#LiberationSerif-Bold-8" transform="translate(1716.203125 0)"/>
     <use xlink:href="#LiberationSerif-Bold-c" transform="translate(1816.203125 0)"/>
    </g>
   </g>
  </g>
 </g>
 <defs>
  <clipPath id="p9d7383739a">
   <rect x="63.197305" y="32.02125" width="641.682695" height="321.002109"/>
  </clipPath>
 </defs>
</svg>
