<?xml version="1.0" encoding="utf-8" standalone="no"?>
<!DOCTYPE svg PUBLIC "-//W3C//DTD SVG 1.1//EN"
  "http://www.w3.org/Graphics/SVG/1.1/DTD/svg11.dtd">
<svg xmlns:xlink="http://www.w3.org/1999/xlink" width="720pt" height="405pt" viewBox="0 0 720 405" xmlns="http://www.w3.org/2000/svg" version="1.1">
 <metadata>
  <rdf:RDF xmlns:dc="http://purl.org/dc/elements/1.1/" xmlns:cc="http://creativecommons.org/ns#" xmlns:rdf="http://www.w3.org/1999/02/22-rdf-syntax-ns#">
   <cc:Work>
    <dc:type rdf:resource="http://purl.org/dc/dcmitype/StillImage"/>
    <dc:date>2026-10-08T13:40:22.164463</dc:date>
    <dc:format>image/svg+xml</dc:format>
    <dc:creator>
     <cc:Agent>
      <dc:title>Matplotlib v3.11.2, https://matplotlib.org/</dc:title>
     </cc:Agent>
    </dc:creator>
   </cc:Work>
  </rdf:RDF>
 </metadata>
 <defs>
  <style type="text/css">*{stroke-linejoin: round; stroke-linecap: butt}</style>
 </defs>
 <g id="figure_1">
  <g id="patch_1">
   <path d="M 0 405 
L 720 405 
L 720 0 
L 0 0 
z
" style="fill: #ffffff"/>
  </g>
  <g id="axes_1">
   <g id="patch_2">
    <path d="M 59.597305 257.1855 
L 704.88 257.1855 
L 704.88 32.02125 
L 59.597305 32.02125 
z
" style="fill: #ffffff"/>
   </g>
   <g id="matplotlib.axis_1">
    <g id="xtick_1">
     <g id="line2d_1">
      <path d="M 88.924209 257.1855 
L 88.924209 32.02125 
" clip-path="url(#pe41c480e9c)" style="fill: none; stroke: #b0b0b0; stroke-opacity: 0.3; stroke-width: 0.8; stroke-linecap: square"/>
     </g>
     <g id="line2d_2">
      <defs>
       <path id="mca2325948b" d="M 0 0 
L 0 3.5 
" style="stroke: #000000; stroke-width: 0.8"/>
      </defs>
      <g>
       <use xlink:href="#mca2325948b" x="88.924209" y="257.1855" style="stroke: #000000; stroke-width: 0.8"/>
      </g>
     </g>
     <g id="text_1">
      <!-- 10.00 -->
      <g transform="translate(74.299209 273.199172) scale(0.13 -0.13)">
       <defs>
        <path id="LiberationSerif-14" d="M 1959 250 
L 2816 166 
L 2816 0 
L 563 0 
L 563 166 
L 1422 250 
L 1422 3669 
L 575 3366 
L 575 3531 
L 1797 4225 
L 1959 4225 
L 1959 250 
z
" transform="scale(0.015625)"/>
        <path id="LiberationSerif-13" d="M 2956 2113 
Q 2956 -63 1581 -63 
Q 919 -63 581 493 
Q 244 1050 244 2113 
Q 244 3153 581 3704 
Q 919 4256 1606 4256 
Q 2269 4256 2612 3711 
Q 2956 3166 2956 2113 
z
M 2381 2113 
Q 2381 3119 2190 3562 
Q 2000 4006 1581 4006 
Q 1175 4006 997 3587 
Q 819 3169 819 2113 
Q 819 1050 1000 617 
Q 1181 184 1581 184 
Q 1994 184 2187 639 
Q 2381 1094 2381 2113 
z
" transform="scale(0.015625)"/>
        <path id="LiberationSerif-11" d="M 1178 288 
Q 1178 134 1070 21 
Q 963 -91 800 -91 
Q 638 -91 530 21 
Q 422 134 422 288 
Q 422 447 531 556 
Q 641 666 800 666 
Q 959 666 1068 556 
Q 1178 447 1178 288 
z
" transform="scale(0.015625)"/>
       </defs>
       <use xlink:href="#LiberationSerif-14"/>
       <use xlink:href="#LiberationSerif-13" transform="translate(50 0)"/>
       <use xlink:href="#LiberationSerif-11" transform="translate(100 0)"/>
       <use xlink:href="#LiberationSerif-13" transform="translate(125 0)"/>
       <use xlink:href="#LiberationSerif-13" transform="translate(175 0)"/>
      </g>
     </g>
    </g>
    <g id="xtick_2">
     <g id="line2d_3">
      <path d="M 162.619787 257.1855 
L 162.619787 32.02125 
" clip-path="url(#pe41c480e9c)" style="fill: none; stroke: #b0b0b0; stroke-opacity: 0.3; stroke-width: 0.8; stroke-linecap: square"/>
     </g>
     <g id="line2d_4">
      <g>
       <use xlink:href="#mca2325948b" x="162.619787" y="257.1855" style="stroke: #000000; stroke-width: 0.8"/>
      </g>
     </g>
     <g id="text_2">
      <!-- 10.25 -->
      <g transform="translate(147.994787 273.199172) scale(0.13 -0.13)">
       <defs>
        <path id="LiberationSerif-15" d="M 2847 0 
L 281 0 
L 281 459 
L 863 988 
Q 1422 1478 1684 1781 
Q 1947 2084 2061 2406 
Q 2175 2728 2175 3144 
Q 2175 3550 1990 3762 
Q 1806 3975 1388 3975 
Q 1222 3975 1047 3929 
Q 872 3884 738 3809 
L 628 3297 
L 422 3297 
L 422 4103 
Q 991 4238 1388 4238 
Q 2075 4238 2420 3952 
Q 2766 3666 2766 3144 
Q 2766 2794 2630 2483 
Q 2494 2172 2212 1864 
Q 1931 1556 1281 1003 
Q 1003 766 691 481 
L 2847 481 
L 2847 0 
z
" transform="scale(0.015625)"/>
        <path id="LiberationSerif-18" d="M 1516 2450 
Q 2241 2450 2595 2153 
Q 2950 1856 2950 1247 
Q 2950 616 2565 276 
Q 2181 -63 1466 -63 
Q 872 -63 406 72 
L 372 953 
L 578 953 
L 719 366 
Q 856 291 1048 244 
Q 1241 197 1416 197 
Q 1909 197 2142 430 
Q 2375 663 2375 1216 
Q 2375 1603 2275 1801 
Q 2175 2000 1956 2094 
Q 1738 2188 1369 2188 
Q 1084 2188 813 2113 
L 513 2113 
L 513 4191 
L 2638 4191 
L 2638 3713 
L 794 3713 
L 794 2375 
Q 1131 2450 1516 2450 
z
" transform="scale(0.015625)"/>
       </defs>
       <use xlink:href="#LiberationSerif-14"/>
       <use xlink:href="#LiberationSerif-13" transform="translate(50 0)"/>
       <use xlink:href="#LiberationSerif-11" transform="translate(100 0)"/>
       <use xlink:href="#LiberationSerif-15" transform="translate(125 0)"/>
       <use xlink:href="#LiberationSerif-18" transform="translate(175 0)"/>
      </g>
     </g>
    </g>
    <g id="xtick_3">
     <g id="line2d_5">
      <path d="M 236.315365 257.1855 
L 236.315365 32.02125 
" clip-path="url(#pe41c480e9c)" style="fill: none; stroke: #b0b0b0; stroke-opacity: 0.3; stroke-width: 0.8; stroke-linecap: square"/>
     </g>
     <g id="line2d_6">
      <g>
       <use xlink:href="#mca2325948b" x="236.315365" y="257.1855" style="stroke: #000000; stroke-width: 0.8"/>
      </g>
     </g>
     <g id="text_3">
      <!-- 10.50 -->
      <g transform="translate(221.690365 273.199172) scale(0.13 -0.13)">
       <use xlink:href="#LiberationSerif-14"/>
       <use xlink:href="#LiberationSerif-13" transform="translate(50 0)"/>
       <use xlink:href="#LiberationSerif-11" transform="translate(100 0)"/>
       <use xlink:href="#LiberationSerif-18" transform="translate(125 0)"/>
       <use xlink:href="#LiberationSerif-13" transform="translate(175 0)"/>
      </g>
     </g>
    </g>
    <g id="xtick_4">
     <g id="line2d_7">
      <path d="M 310.010943 257.1855 
L 310.010943 32.02125 
" clip-path="url(#pe41c480e9c)" style="fill: none; stroke: #b0b0b0; stroke-opacity: 0.3; stroke-width: 0.8; stroke-linecap: square"/>
     </g>
     <g id="line2d_8">
      <g>
       <use xlink:href="#mca2325948b" x="310.010943" y="257.1855" style="stroke: #000000; stroke-width: 0.8"/>
      </g>
     </g>
     <g id="text_4">
      <!-- 10.75 -->
      <g transform="translate(295.385943 273.199172) scale(0.13 -0.13)">
       <defs>
        <path id="LiberationSerif-1a" d="M 628 3200 
L 422 3200 
L 422 4191 
L 3016 4191 
L 3016 3950 
L 1147 0 
L 744 0 
L 2578 3713 
L 738 3713 
L 628 3200 
z
" transform="scale(0.015625)"/>
       </defs>
       <use xlink:href="#LiberationSerif-14"/>
       <use xlink:href="#LiberationSerif-13" transform="translate(50 0)"/>
       <use xlink:href="#LiberationSerif-11" transform="translate(100 0)"/>
       <use xlink:href="#LiberationSerif-1a" transform="translate(125 0)"/>
       <use xlink:href="#LiberationSerif-18" transform="translate(175 0)"/>
      </g>
     </g>
    </g>
    <g id="xtick_5">
     <g id="line2d_9">
      <path d="M 383.706521 257.1855 
L 383.706521 32.02125 
" clip-path="url(#pe41c480e9c)" style="fill: none; stroke: #b0b0b0; stroke-opacity: 0.3; stroke-width: 0.8; stroke-linecap: square"/>
     </g>
     <g id="line2d_10">
      <g>
       <use xlink:href="#mca2325948b" x="383.706521" y="257.1855" style="stroke: #000000; stroke-width: 0.8"/>
      </g>
     </g>
     <g id="text_5">
      <!-- 11.00 -->
      <g transform="translate(369.322224 273.199172) scale(0.13 -0.13)">
       <use xlink:href="#LiberationSerif-14"/>
       <use xlink:href="#LiberationSerif-14" transform="translate(46.296875 0)"/>
       <use xlink:href="#LiberationSerif-11" transform="translate(96.296875 0)"/>
       <use xlink:href="#LiberationSerif-13" transform="translate(121.296875 0)"/>
       <use xlink:href="#LiberationSerif-13" transform="translate(171.296875 0)"/>
      </g>
     </g>
    </g>
    <g id="xtick_6">
     <g id="line2d_11">
      <path d="M 457.402099 257.1855 
L 457.402099 32.02125 
" clip-path="url(#pe41c480e9c)" style="fill: none; stroke: #b0b0b0; stroke-opacity: 0.3; stroke-width: 0.8; stroke-linecap: square"/>
     </g>
     <g id="line2d_12">
      <g>
       <use xlink:href="#mca2325948b" x="457.402099" y="257.1855" style="stroke: #000000; stroke-width: 0.8"/>
      </g>
     </g>
     <g id="text_6">
      <!-- 11.25 -->
      <g transform="translate(443.017802 273.199172) scale(0.13 -0.13)">
       <use xlink:href="#LiberationSerif-14"/>
       <use xlink:href="#LiberationSerif-14" transform="translate(46.296875 0)"/>
       <use xlink:href="#LiberationSerif-11" transform="translate(96.296875 0)"/>
       <use xlink:href="#LiberationSerif-15" transform="translate(121.296875 0)"/>
       <use xlink:href="#LiberationSerif-18" transform="translate(171.296875 0)"/>
      </g>
     </g>
    </g>
    <g id="xtick_7">
     <g id="line2d_13">
      <path d="M 531.097677 257.1855 
L 531.097677 32.02125 
" clip-path="url(#pe41c480e9c)" style="fill: none; stroke: #b0b0b0; stroke-opacity: 0.3; stroke-width: 0.8; stroke-linecap: square"/>
     </g>
     <g id="line2d_14">
      <g>
       <use xlink:href="#mca2325948b" x="531.097677" y="257.1855" style="stroke: #000000; stroke-width: 0.8"/>
      </g>
     </g>
     <g id="text_7">
      <!-- 11.50 -->
      <g transform="translate(516.71338 273.199172) scale(0.13 -0.13)">
       <use xlink:href="#LiberationSerif-14"/>
       <use xlink:href="#LiberationSerif-14" transform="translate(46.296875 0)"/>
       <use xlink:href="#LiberationSerif-11" transform="translate(96.296875 0)"/>
       <use xlink:href="#LiberationSerif-18" transform="translate(121.296875 0)"/>
       <use xlink:href="#LiberationSerif-13" transform="translate(171.296875 0)"/>
      </g>
     </g>
    </g>
    <g id="xtick_8">
     <g id="line2d_15">
      <path d="M 604.793255 257.1855 
L 604.793255 32.02125 
" clip-path="url(#pe41c480e9c)" style="fill: none; stroke: #b0b0b0; stroke-opacity: 0.3; stroke-width: 0.8; stroke-linecap: square"/>
     </g>
     <g id="line2d_16">
      <g>
       <use xlink:href="#mca2325948b" x="604.793255" y="257.1855" style="stroke: #000000; stroke-width: 0.8"/>
      </g>
     </g>
     <g id="text_8">
      <!-- 11.75 -->
      <g transform="translate(590.408958 273.199172) scale(0.13 -0.13)">
       <use xlink:href="#LiberationSerif-14"/>
       <use xlink:href="#LiberationSerif-14" transform="translate(46.296875 0)"/>
       <use xlink:href="#LiberationSerif-11" transform="translate(96.296875 0)"/>
       <use xlink:href="#LiberationSerif-1a" transform="translate(121.296875 0)"/>
       <use xlink:href="#LiberationSerif-18" transform="translate(171.296875 0)"/>
      </g>
     </g>
    </g>
    <g id="xtick_9">
     <g id="line2d_17">
      <path d="M 678.488832 257.1855 
L 678.488832 32.02125 
" clip-path="url(#pe41c480e9c)" style="fill: none; stroke: #b0b0b0; stroke-opacity: 0.3; stroke-width: 0.8; stroke-linecap: square"/>
     </g>
     <g id="line2d_18">
      <g>
       <use xlink:href="#mca2325948b" x="678.488832" y="257.1855" style="stroke: #000000; stroke-width: 0.8"/>
      </g>
     </g>
     <g id="text_9">
      <!-- 12.00 -->
      <g transform="translate(663.863832 273.199172) scale(0.13 -0.13)">
       <use xlink:href="#LiberationSerif-14"/>
       <use xlink:href="#LiberationSerif-15" transform="translate(50 0)"/>
       <use xlink:href="#LiberationSerif-11" transform="translate(100 0)"/>
       <use xlink:href="#LiberationSerif-13" transform="translate(125 0)"/>
       <use xlink:href="#LiberationSerif-13" transform="translate(175 0)"/>
      </g>
     </g>
    </g>
    <g id="text_10">
     <!-- Time (s) -->
     <g transform="translate(356.886309 290.41343) scale(0.15 -0.15)">
      <defs>
       <path id="LiberationSerif-37" d="M 984 0 
L 984 166 
L 1650 250 
L 1650 3922 
L 1491 3922 
Q 700 3922 409 3859 
L 325 3206 
L 116 3206 
L 116 4191 
L 3803 4191 
L 3803 3206 
L 3591 3206 
L 3506 3859 
Q 3413 3881 3097 3898 
Q 2781 3916 2406 3916 
L 2253 3916 
L 2253 250 
L 2919 166 
L 2919 0 
L 984 0 
z
" transform="scale(0.015625)"/>
       <path id="LiberationSerif-4c" d="M 1184 3897 
Q 1184 3759 1084 3659 
Q 984 3559 844 3559 
Q 706 3559 606 3659 
Q 506 3759 506 3897 
Q 506 4038 606 4138 
Q 706 4238 844 4238 
Q 984 4238 1084 4138 
Q 1184 4038 1184 3897 
z
M 1153 219 
L 1656 141 
L 1656 0 
L 134 0 
L 134 141 
L 634 219 
L 634 2719 
L 219 2797 
L 219 2938 
L 1153 2938 
L 1153 219 
z
" transform="scale(0.015625)"/>
       <path id="LiberationSerif-50" d="M 1019 2700 
Q 1253 2834 1515 2925 
Q 1778 3016 1978 3016 
Q 2194 3016 2376 2934 
Q 2559 2853 2650 2675 
Q 2891 2809 3214 2912 
Q 3538 3016 3750 3016 
Q 4500 3016 4500 2150 
L 4500 219 
L 4878 141 
L 4878 0 
L 3544 0 
L 3544 141 
L 3981 219 
L 3981 2094 
Q 3981 2631 3481 2631 
Q 3400 2631 3292 2618 
Q 3184 2606 3076 2590 
Q 2969 2575 2870 2554 
Q 2772 2534 2706 2522 
Q 2759 2353 2759 2150 
L 2759 219 
L 3200 141 
L 3200 0 
L 1806 0 
L 1806 141 
L 2241 219 
L 2241 2094 
Q 2241 2353 2108 2492 
Q 1975 2631 1709 2631 
Q 1434 2631 1025 2541 
L 1025 219 
L 1466 141 
L 1466 0 
L 134 0 
L 134 141 
L 506 219 
L 506 2719 
L 134 2797 
L 134 2938 
L 994 2938 
L 1019 2700 
z
" transform="scale(0.015625)"/>
       <path id="LiberationSerif-48" d="M 813 1478 
L 813 1422 
Q 813 991 908 752 
Q 1003 513 1201 388 
Q 1400 263 1722 263 
Q 1891 263 2122 291 
Q 2353 319 2503 353 
L 2503 178 
Q 2353 81 2095 9 
Q 1838 -63 1569 -63 
Q 884 -63 567 306 
Q 250 675 250 1491 
Q 250 2259 572 2637 
Q 894 3016 1491 3016 
Q 2619 3016 2619 1734 
L 2619 1478 
L 813 1478 
z
M 1491 2766 
Q 1166 2766 992 2503 
Q 819 2241 819 1728 
L 2075 1728 
Q 2075 2288 1931 2527 
Q 1788 2766 1491 2766 
z
" transform="scale(0.015625)"/>
       <path id="LiberationSerif-3" transform="scale(0.015625)"/>
       <path id="LiberationSerif-b" d="M 884 1544 
Q 884 731 993 248 
Q 1103 -234 1337 -565 
Q 1572 -897 1925 -1100 
L 1925 -1363 
Q 1306 -1034 957 -645 
Q 609 -256 445 270 
Q 281 797 281 1544 
Q 281 2288 443 2811 
Q 606 3334 953 3721 
Q 1300 4109 1925 4441 
L 1925 4178 
Q 1544 3959 1319 3617 
Q 1094 3275 989 2819 
Q 884 2363 884 1544 
z
" transform="scale(0.015625)"/>
       <path id="LiberationSerif-56" d="M 2259 825 
Q 2259 388 1982 162 
Q 1706 -63 1166 -63 
Q 947 -63 683 -17 
Q 419 28 269 84 
L 269 806 
L 409 806 
L 563 397 
Q 797 184 1172 184 
Q 1778 184 1778 703 
Q 1778 1084 1300 1247 
L 1022 1338 
Q 706 1441 562 1547 
Q 419 1653 341 1808 
Q 263 1963 263 2181 
Q 263 2569 527 2792 
Q 791 3016 1241 3016 
Q 1563 3016 2047 2919 
L 2047 2278 
L 1900 2278 
L 1769 2619 
Q 1603 2766 1247 2766 
Q 994 2766 861 2641 
Q 728 2516 728 2303 
Q 728 2125 848 2003 
Q 969 1881 1213 1800 
Q 1672 1644 1812 1572 
Q 1953 1500 2051 1395 
Q 2150 1291 2204 1156 
Q 2259 1022 2259 825 
z
" transform="scale(0.015625)"/>
       <path id="LiberationSerif-c" d="M 206 -1363 
L 206 -1100 
Q 559 -897 793 -564 
Q 1028 -231 1137 251 
Q 1247 734 1247 1544 
Q 1247 2363 1142 2819 
Q 1038 3275 813 3617 
Q 588 3959 206 4178 
L 206 4441 
Q 831 4106 1178 3720 
Q 1525 3334 1687 2811 
Q 1850 2288 1850 1544 
Q 1850 800 1687 273 
Q 1525 -253 1178 -640 
Q 831 -1028 206 -1363 
z
" transform="scale(0.015625)"/>
      </defs>
      <use xlink:href="#LiberationSerif-37"/>
      <use xlink:href="#LiberationSerif-4c" transform="translate(57.5625 0)"/>
      <use xlink:href="#LiberationSerif-50" transform="translate(85.34375 0)"/>
      <use xlink:href="#LiberationSerif-48" transform="translate(163.125 0)"/>
      <use xlink:href="#LiberationSerif-3" transform="translate(207.515625 0)"/>
      <use xlink:href="#LiberationSerif-b" transform="translate(232.515625 0)"/>
      <use xlink:href="#LiberationSerif-56" transform="translate(265.8125 0)"/>
      <use xlink:href="#LiberationSerif-c" transform="translate(304.734375 0)"/>
     </g>
    </g>
   </g>
   <g id="matplotlib.axis_2">
    <g id="ytick_1">
     <g id="line2d_19">
      <path d="M 59.597305 227.313549 
L 704.88 227.313549 
" clip-path="url(#pe41c480e9c)" style="fill: none; stroke: #b0b0b0; stroke-opacity: 0.3; stroke-width: 0.8; stroke-linecap: square"/>
     </g>
     <g id="line2d_20">
      <defs>
       <path id="m5f4c3225ab" d="M 0 0 
L -3.5 0 
" style="stroke: #000000; stroke-width: 0.8"/>
      </defs>
      <g>
       <use xlink:href="#m5f4c3225ab" x="59.597305" y="227.313549" style="stroke: #000000; stroke-width: 0.8"/>
      </g>
     </g>
     <g id="text_11">
      <!-- 456 -->
      <g transform="translate(33.097305 231.820385) scale(0.13 -0.13)">
       <defs>
        <path id="LiberationSerif-17" d="M 2531 922 
L 2531 0 
L 1994 0 
L 1994 922 
L 125 922 
L 125 1338 
L 2172 4213 
L 2531 4213 
L 2531 1369 
L 3100 1369 
L 3100 922 
L 2531 922 
z
M 1994 3478 
L 1978 3478 
L 478 1369 
L 1994 1369 
L 1994 3478 
z
" transform="scale(0.015625)"/>
        <path id="LiberationSerif-19" d="M 3009 1300 
Q 3009 647 2679 292 
Q 2350 -63 1728 -63 
Q 1022 -63 648 487 
Q 275 1038 275 2069 
Q 275 2744 472 3234 
Q 669 3725 1023 3981 
Q 1378 4238 1844 4238 
Q 2300 4238 2753 4128 
L 2753 3406 
L 2547 3406 
L 2438 3834 
Q 2334 3891 2159 3933 
Q 1984 3975 1844 3975 
Q 1388 3975 1133 3533 
Q 878 3091 853 2241 
Q 1363 2509 1875 2509 
Q 2428 2509 2718 2198 
Q 3009 1888 3009 1300 
z
M 1716 184 
Q 2094 184 2262 429 
Q 2431 675 2431 1241 
Q 2431 1753 2270 1981 
Q 2109 2209 1759 2209 
Q 1331 2209 850 2053 
Q 850 1100 1065 642 
Q 1281 184 1716 184 
z
" transform="scale(0.015625)"/>
       </defs>
       <use xlink:href="#LiberationSerif-17"/>
       <use xlink:href="#LiberationSerif-18" transform="translate(50 0)"/>
       <use xlink:href="#LiberationSerif-19" transform="translate(100 0)"/>
      </g>
     </g>
    </g>
    <g id="ytick_2">
     <g id="line2d_21">
      <path d="M 59.597305 190.354377 
L 704.88 190.354377 
" clip-path="url(#pe41c480e9c)" style="fill: none; stroke: #b0b0b0; stroke-opacity: 0.3; stroke-width: 0.8; stroke-linecap: square"/>
     </g>
     <g id="line2d_22">
      <g>
       <use xlink:href="#m5f4c3225ab" x="59.597305" y="190.354377" style="stroke: #000000; stroke-width: 0.8"/>
      </g>
     </g>
     <g id="text_12">
      <!-- 458 -->
      <g transform="translate(33.097305 194.861213) scale(0.13 -0.13)">
       <defs>
        <path id="LiberationSerif-1b" d="M 2828 3169 
Q 2828 2825 2661 2586 
Q 2494 2347 2209 2222 
Q 2566 2091 2761 1811 
Q 2956 1531 2956 1131 
Q 2956 538 2622 237 
Q 2288 -63 1581 -63 
Q 244 -63 244 1131 
Q 244 1547 444 1820 
Q 644 2094 984 2222 
Q 713 2347 542 2584 
Q 372 2822 372 3169 
Q 372 3688 689 3972 
Q 1006 4256 1606 4256 
Q 2188 4256 2508 3973 
Q 2828 3691 2828 3169 
z
M 2394 1131 
Q 2394 1631 2198 1856 
Q 2003 2081 1581 2081 
Q 1169 2081 987 1867 
Q 806 1653 806 1131 
Q 806 603 990 393 
Q 1175 184 1581 184 
Q 1997 184 2195 401 
Q 2394 619 2394 1131 
z
M 2266 3169 
Q 2266 3600 2097 3803 
Q 1928 4006 1588 4006 
Q 1256 4006 1095 3809 
Q 934 3613 934 3169 
Q 934 2734 1090 2545 
Q 1247 2356 1588 2356 
Q 1938 2356 2102 2548 
Q 2266 2741 2266 3169 
z
" transform="scale(0.015625)"/>
       </defs>
       <use xlink:href="#LiberationSerif-17"/>
       <use xlink:href="#LiberationSerif-18" transform="translate(50 0)"/>
       <use xlink:href="#LiberationSerif-1b" transform="translate(100 0)"/>
      </g>
     </g>
    </g>
    <g id="ytick_3">
     <g id="line2d_23">
      <path d="M 59.597305 153.395204 
L 704.88 153.395204 
" clip-path="url(#pe41c480e9c)" style="fill: none; stroke: #b0b0b0; stroke-opacity: 0.3; stroke-width: 0.8; stroke-linecap: square"/>
     </g>
     <g id="line2d_24">
      <g>
       <use xlink:href="#m5f4c3225ab" x="59.597305" y="153.395204" style="stroke: #000000; stroke-width: 0.8"/>
      </g>
     </g>
     <g id="text_13">
      <!-- 460 -->
      <g transform="translate(33.097305 157.90204) scale(0.13 -0.13)">
       <use xlink:href="#LiberationSerif-17"/>
       <use xlink:href="#LiberationSerif-19" transform="translate(50 0)"/>
       <use xlink:href="#LiberationSerif-13" transform="translate(100 0)"/>
      </g>
     </g>
    </g>
    <g id="ytick_4">
     <g id="line2d_25">
      <path d="M 59.597305 116.436032 
L 704.88 116.436032 
" clip-path="url(#pe41c480e9c)" style="fill: none; stroke: #b0b0b0; stroke-opacity: 0.3; stroke-width: 0.8; stroke-linecap: square"/>
     </g>
     <g id="line2d_26">
      <g>
       <use xlink:href="#m5f4c3225ab" x="59.597305" y="116.436032" style="stroke: #000000; stroke-width: 0.8"/>
      </g>
     </g>
     <g id="text_14">
      <!-- 462 -->
      <g transform="translate(33.097305 120.942868) scale(0.13 -0.13)">
       <use xlink:href="#LiberationSerif-17"/>
       <use xlink:href="#LiberationSerif-19" transform="translate(50 0)"/>
       <use xlink:href="#LiberationSerif-15" transform="translate(100 0)"/>
      </g>
     </g>
    </g>
    <g id="ytick_5">
     <g id="line2d_27">
      <path d="M 59.597305 79.47686 
L 704.88 79.47686 
" clip-path="url(#pe41c480e9c)" style="fill: none; stroke: #b0b0b0; stroke-opacity: 0.3; stroke-width: 0.8; stroke-linecap: square"/>
     </g>
     <g id="line2d_28">
      <g>
       <use xlink:href="#m5f4c3225ab" x="59.597305" y="79.47686" style="stroke: #000000; stroke-width: 0.8"/>
      </g>
     </g>
     <g id="text_15">
      <!-- 464 -->
      <g transform="translate(33.097305 83.983696) scale(0.13 -0.13)">
       <use xlink:href="#LiberationSerif-17"/>
       <use xlink:href="#LiberationSerif-19" transform="translate(50 0)"/>
       <use xlink:href="#LiberationSerif-17" transform="translate(100 0)"/>
      </g>
     </g>
    </g>
    <g id="ytick_6">
     <g id="line2d_29">
      <path d="M 59.597305 42.517687 
L 704.88 42.517687 
" clip-path="url(#pe41c480e9c)" style="fill: none; stroke: #b0b0b0; stroke-opacity: 0.3; stroke-width: 0.8; stroke-linecap: square"/>
     </g>
     <g id="line2d_30">
      <g>
       <use xlink:href="#m5f4c3225ab" x="59.597305" y="42.517687" style="stroke: #000000; stroke-width: 0.8"/>
      </g>
     </g>
     <g id="text_16">
      <!-- 466 -->
      <g transform="translate(33.097305 47.024523) scale(0.13 -0.13)">
       <use xlink:href="#LiberationSerif-17"/>
       <use xlink:href="#LiberationSerif-19" transform="translate(50 0)"/>
       <use xlink:href="#LiberationSerif-19" transform="translate(100 0)"/>
      </g>
     </g>
    </g>
    <g id="text_17">
     <!-- Raw speed (RPM) -->
     <g transform="translate(25.86 200.016656) rotate(-90) scale(0.15 -0.15)">
      <defs>
       <path id="LiberationSerif-35" d="M 1325 1838 
L 1325 250 
L 1959 166 
L 1959 0 
L 225 0 
L 225 166 
L 722 250 
L 722 3944 
L 184 4025 
L 184 4191 
L 1994 4191 
Q 2781 4191 3156 3925 
Q 3531 3659 3531 3072 
Q 3531 2653 3303 2348 
Q 3075 2044 2672 1925 
L 3806 250 
L 4259 166 
L 4259 0 
L 3256 0 
L 2078 1838 
L 1325 1838 
z
M 2909 3028 
Q 2909 3506 2676 3707 
Q 2444 3909 1859 3909 
L 1325 3909 
L 1325 2119 
L 1878 2119 
Q 2438 2119 2673 2326 
Q 2909 2534 2909 3028 
z
" transform="scale(0.015625)"/>
       <path id="LiberationSerif-44" d="M 1453 3003 
Q 1934 3003 2161 2806 
Q 2388 2609 2388 2203 
L 2388 219 
L 2753 141 
L 2753 0 
L 1947 0 
L 1888 294 
Q 1531 -63 978 -63 
Q 225 -63 225 813 
Q 225 1106 339 1298 
Q 453 1491 703 1592 
Q 953 1694 1428 1703 
L 1869 1716 
L 1869 2175 
Q 1869 2478 1758 2622 
Q 1647 2766 1416 2766 
Q 1103 2766 844 2619 
L 738 2253 
L 563 2253 
L 563 2894 
Q 1069 3003 1453 3003 
z
M 1869 1497 
L 1459 1484 
Q 1041 1469 892 1322 
Q 744 1175 744 831 
Q 744 281 1191 281 
Q 1403 281 1558 329 
Q 1713 378 1869 453 
L 1869 1497 
z
" transform="scale(0.015625)"/>
       <path id="LiberationSerif-5a" d="M 3284 -63 
L 3041 -63 
L 2316 1875 
L 1600 -63 
L 1369 -63 
L 353 2719 
L 6 2797 
L 6 2938 
L 1403 2938 
L 1403 2797 
L 916 2713 
L 1613 728 
L 2322 2644 
L 2584 2644 
L 3291 716 
L 3956 2719 
L 3475 2797 
L 3475 2938 
L 4594 2938 
L 4594 2797 
L 4269 2731 
L 3284 -63 
z
" transform="scale(0.015625)"/>
       <path id="LiberationSerif-53" d="M 475 2719 
L 141 2797 
L 141 2938 
L 966 2938 
L 972 2766 
Q 1103 2878 1323 2947 
Q 1544 3016 1772 3016 
Q 2334 3016 2642 2625 
Q 2950 2234 2950 1503 
Q 2950 756 2614 346 
Q 2278 -63 1644 -63 
Q 1291 -63 972 6 
Q 991 -219 991 -347 
L 991 -1141 
L 1503 -1216 
L 1503 -1363 
L 103 -1363 
L 103 -1216 
L 475 -1141 
L 475 2719 
z
M 2388 1503 
Q 2388 2103 2192 2395 
Q 1997 2688 1600 2688 
Q 1234 2688 991 2584 
L 991 238 
Q 1269 184 1600 184 
Q 2388 184 2388 1503 
z
" transform="scale(0.015625)"/>
       <path id="LiberationSerif-47" d="M 2259 219 
Q 1906 -63 1434 -63 
Q 231 -63 231 1441 
Q 231 2213 572 2614 
Q 913 3016 1575 3016 
Q 1913 3016 2259 2944 
Q 2241 3047 2241 3463 
L 2241 4225 
L 1747 4300 
L 1747 4441 
L 2759 4441 
L 2759 219 
L 3122 141 
L 3122 0 
L 2297 0 
L 2259 219 
z
M 794 1441 
Q 794 847 994 555 
Q 1194 263 1606 263 
Q 1959 263 2241 384 
L 2241 2706 
Q 1963 2759 1606 2759 
Q 794 2759 794 1441 
z
" transform="scale(0.015625)"/>
       <path id="LiberationSerif-33" d="M 2681 2950 
Q 2681 3466 2440 3687 
Q 2200 3909 1631 3909 
L 1325 3909 
L 1325 1925 
L 1650 1925 
Q 2178 1925 2429 2165 
Q 2681 2406 2681 2950 
z
M 1325 1644 
L 1325 250 
L 1991 166 
L 1991 0 
L 225 0 
L 225 166 
L 722 250 
L 722 3944 
L 184 4025 
L 184 4191 
L 1766 4191 
Q 3303 4191 3303 2956 
Q 3303 2313 2914 1978 
Q 2525 1644 1797 1644 
L 1325 1644 
z
" transform="scale(0.015625)"/>
       <path id="LiberationSerif-30" d="M 2694 0 
L 2584 0 
L 1050 3603 
L 1050 250 
L 1613 166 
L 1613 0 
L 184 0 
L 184 166 
L 722 250 
L 722 3944 
L 184 4025 
L 184 4191 
L 1453 4191 
L 2816 1003 
L 4303 4191 
L 5503 4191 
L 5503 4025 
L 4966 3944 
L 4966 250 
L 5503 166 
L 5503 0 
L 3803 0 
L 3803 166 
L 4366 250 
L 4366 3603 
L 2694 0 
z
" transform="scale(0.015625)"/>
      </defs>
      <use xlink:href="#LiberationSerif-35"/>
      <use xlink:href="#LiberationSerif-44" transform="translate(66.703125 0)"/>
      <use xlink:href="#LiberationSerif-5a" transform="translate(111.09375 0)"/>
      <use xlink:href="#LiberationSerif-3" transform="translate(183.3125 0)"/>
      <use xlink:href="#LiberationSerif-56" transform="translate(208.3125 0)"/>
      <use xlink:href="#LiberationSerif-53" transform="translate(247.234375 0)"/>
      <use xlink:href="#LiberationSerif-48" transform="translate(297.234375 0)"/>
      <use xlink:href="#LiberationSerif-48" transform="translate(341.625 0)"/>
      <use xlink:href="#LiberationSerif-47" transform="translate(386.015625 0)"/>
      <use xlink:href="#LiberationSerif-3" transform="translate(436.015625 0)"/>
      <use xlink:href="#LiberationSerif-b" transform="translate(461.015625 0)"/>
      <use xlink:href="#LiberationSerif-35" transform="translate(494.3125 0)"/>
      <use xlink:href="#LiberationSerif-33" transform="translate(561.015625 0)"/>
      <use xlink:href="#LiberationSerif-30" transform="translate(616.625 0)"/>
      <use xlink:href="#LiberationSerif-c" transform="translate(705.546875 0)"/>
     </g>
    </g>
   </g>
   <g id="line2d_31">
    <path d="M 88.929515 165.510846 
L 91.877339 138.357201 
L 94.824277 89.577986 
L 97.772985 117.710791 
L 100.720808 184.612751 
L 103.672463 139.580919 
L 106.617338 201.011055 
L 109.564572 130.762257 
L 112.514164 132.306837 
L 115.460513 161.547954 
L 118.408041 140.68197 
L 121.355864 197.329552 
L 124.302508 204.152271 
L 127.251805 138.357201 
L 130.199334 129.711194 
L 133.147157 81.931171 
L 136.094685 111.29673 
L 139.042803 179.040158 
L 141.990626 125.714817 
L 144.938449 202.974585 
L 147.885978 148.38136 
L 150.833801 144.863364 
L 153.784867 152.774771 
L 156.729742 149.040656 
L 159.676386 205.143737 
L 162.625978 202.974585 
L 165.572622 161.547954 
L 168.521034 140.68197 
L 171.468563 86.393473 
L 174.416681 105.676533 
L 177.364209 170.78893 
L 180.313211 145.659354 
L 183.262508 184.612751 
L 186.208268 157.581385 
L 189.155501 121.925301 
L 192.103324 182.311913 
L 195.051148 121.925301 
L 197.999265 207.095034 
L 200.947383 193.934778 
L 203.894912 151.359604 
L 206.842735 141.677927 
L 209.790558 104.1963 
L 212.741329 123.91522 
L 215.686204 183.40195 
L 218.634027 161.547954 
L 221.58185 200.804306 
L 224.529674 157.581385 
L 227.477202 129.045393 
L 230.424141 149.637085 
L 233.374912 124.381848 
L 236.320671 182.114643 
L 239.268789 195.591122 
L 242.21956 153.213846 
L 245.16473 157.163636 
L 248.111964 73.418697 
L 251.059787 110.360554 
L 254.00761 157.581385 
L 256.955433 170.78893 
L 259.903256 169.470024 
L 262.851079 161.547954 
L 265.798902 137.692749 
L 268.74702 156.919927 
L 271.697496 153.611083 
L 274.642666 188.630176 
L 277.591079 210.388484 
L 280.541555 148.38136 
L 283.487905 174.018533 
L 286.437496 68.516359 
L 289.382077 125.714817 
L 292.329605 161.547954 
L 295.277133 173.425524 
L 298.228494 192.112081 
L 301.176907 153.213846 
L 304.121487 126.346061 
L 307.068721 145.659354 
L 310.016839 147.648681 
L 312.964072 189.210694 
L 315.913369 234.916919 
L 318.860308 161.547954 
L 321.810784 170.78893 
L 324.756249 77.46423 
L 327.703483 126.346061 
L 333.599424 156.919927 
L 336.546952 173.425524 
L 339.494775 133.703838 
L 342.442598 149.637085 
L 345.390421 130.762257 
L 348.338244 169.865745 
L 351.286067 179.040158 
L 354.233891 207.095034 
L 357.181714 169.470024 
L 360.129242 166.170974 
L 363.077655 69.369339 
L 366.024888 126.346061 
L 368.973006 144.863364 
L 371.920829 161.547954 
L 374.868358 189.210694 
L 377.816181 119.713202 
L 380.764004 149.637085 
L 383.710943 133.703838 
L 386.65965 161.547954 
L 389.606589 183.40195 
L 392.555591 186.452523 
L 395.502235 170.303065 
L 398.450943 178.167256 
L 401.397881 77.46423 
L 404.346589 109.691722 
L 407.294412 138.357201 
L 410.242235 145.659354 
L 413.190058 202.974585 
L 416.137881 141.677927 
L 419.085704 152.774771 
L 422.033822 123.91522 
L 424.981645 148.38136 
L 427.929174 194.72162 
L 430.877292 192.112081 
L 433.82482 182.311913 
L 436.772643 161.547954 
L 439.720466 97.634827 
L 442.668289 119.713202 
L 445.616112 152.774771 
L 448.56423 149.040656 
L 451.512053 209.478716 
L 454.459582 121.71467 
L 457.407405 152.286836 
L 460.355228 117.710791 
L 463.303641 147.648681 
L 466.250874 204.937191 
L 469.198697 161.547954 
L 472.14652 185.269903 
L 475.094344 157.163636 
L 478.042167 90.182786 
L 480.9894 108.635466 
L 483.940761 149.637085 
L 486.885931 138.357201 
L 489.833754 208.859705 
L 492.781282 130.762257 
L 495.729105 153.213846 
L 498.676928 135.17387 
L 501.625046 153.213846 
L 504.576996 209.478716 
L 507.520987 177.377328 
L 510.470284 193.803628 
L 513.416339 149.637085 
L 516.364162 100.987375 
L 519.31169 105.676533 
L 522.259513 135.17387 
L 525.207336 161.547954 
L 528.15516 196.46042 
L 531.102983 136.496473 
L 534.050806 143.983422 
L 536.998629 141.677927 
L 539.947042 147.648681 
L 542.894275 204.937191 
L 545.844162 166.170974 
L 548.789627 201.011055 
L 551.740103 147.648681 
L 554.685273 113.703142 
L 557.63398 101.657574 
L 560.580919 129.045393 
L 563.529332 173.425524 
L 566.476565 193.803628 
L 569.424978 161.547954 
L 572.372212 152.774771 
L 575.320624 132.306837 
L 578.272869 135.17387 
L 581.220987 211.211454 
L 584.163504 170.303065 
L 587.112211 185.269903 
L 590.058561 147.648681 
L 593.007268 101.657574 
L 595.95627 104.1963 
L 598.903209 115.507045 
L 604.798855 182.311913 
L 607.745499 165.927783 
L 610.694207 141.677927 
L 613.641146 138.357201 
L 616.593685 149.637085 
L 619.537087 221.256957 
L 622.485794 173.425524 
L 625.433322 207.552607 
L 631.328969 99.752532 
L 634.276792 119.713202 
L 637.224615 95.304145 
L 640.172438 173.425524 
L 643.120261 180.009819 
L 646.068379 169.470024 
L 649.015907 148.38136 
L 651.964025 128.113098 
L 654.911554 148.38136 
L 657.859377 194.72162 
L 660.807789 187.759252 
L 663.755023 178.167256 
L 666.702846 137.692749 
L 669.655975 100.987375 
L 672.599377 121.71467 
L 675.54661 113.070012 
L 675.54661 113.070012 
" clip-path="url(#pe41c480e9c)" style="fill: none; stroke: #2471a3; stroke-opacity: 0.3; stroke-width: 1.4; stroke-linecap: square"/>
   </g>
   <g id="line2d_32">
    <path d="M 88.928336 182.311913 
L 91.876454 149.040656 
L 94.823983 202.974585 
L 97.776817 153.213846 
L 100.719334 132.306837 
L 103.671284 161.547954 
L 106.617338 144.863364 
L 109.564572 201.011055 
L 112.512395 198.391592 
L 115.459039 153.611083 
L 118.408041 135.17387 
L 121.35557 85.543874 
L 124.303393 115.039437 
L 127.251511 181.325454 
L 130.199039 143.005482 
L 133.147452 177.377328 
L 136.09498 161.547954 
L 139.042508 117.710791 
L 141.990331 170.78893 
L 144.938449 145.659354 
L 147.886273 196.46042 
L 150.83439 194.72162 
L 153.781624 157.163636 
L 156.728858 136.496473 
L 159.67727 90.851137 
L 162.625093 113.703142 
L 165.572327 180.009819 
L 168.521034 161.547954 
L 171.468857 192.112081 
L 174.416386 165.708892 
L 177.364209 121.925301 
L 180.312327 153.213846 
L 183.26015 139.580919 
L 186.207678 207.095034 
L 189.155796 183.40195 
L 195.051148 132.306837 
L 197.998971 99.752532 
L 200.946794 121.71467 
L 203.895206 175.401897 
L 206.84244 141.677927 
L 209.790853 184.612751 
L 212.738086 165.510846 
L 215.686204 121.925301 
L 218.633732 157.382951 
L 221.581556 130.762257 
L 224.529674 211.211454 
L 227.477202 174.673857 
L 230.42532 165.708892 
L 233.372848 148.38136 
L 236.320671 77.46423 
L 239.268494 119.713202 
L 242.216317 181.325454 
L 245.166204 161.547954 
L 248.112553 186.452523 
L 251.059197 148.38136 
L 254.008199 121.71467 
L 256.955433 166.170974 
L 259.903256 145.659354 
L 262.851374 198.391592 
L 265.799197 208.859705 
L 268.74702 147.648681 
L 271.693664 153.611083 
L 274.645025 64.03541 
L 277.590784 140.68197 
L 280.538018 157.163636 
L 283.485841 161.547954 
L 286.433959 192.112081 
L 289.381487 149.637085 
L 292.32931 129.045393 
L 295.282145 169.470024 
L 298.225841 139.580919 
L 301.173369 202.974585 
L 304.120603 192.112081 
L 307.068426 182.311913 
L 310.01566 170.303065 
L 312.964367 69.369339 
L 315.91219 156.919927 
L 318.858834 149.637085 
L 321.808131 166.170974 
L 324.75448 173.425524 
L 327.703777 147.648681 
L 330.651011 137.692749 
L 333.599129 144.863364 
L 336.547247 135.17387 
L 339.49448 193.147806 
L 342.442303 166.170974 
L 345.390126 161.547954 
L 348.338244 165.927783 
L 351.28931 61.259148 
L 354.234185 143.005482 
L 357.181714 149.637085 
L 360.129832 161.547954 
L 363.07736 185.269903 
L 366.026952 143.005482 
L 368.973301 133.703838 
L 371.920829 126.346061 
L 374.868358 153.213846 
L 377.816475 192.112081 
L 380.764299 185.269903 
L 383.711827 161.547954 
L 386.66643 165.510846 
L 389.609831 68.516359 
L 392.555886 128.113098 
L 395.502235 152.774771 
L 398.451237 169.865745 
L 401.39906 183.40195 
L 404.346884 141.677927 
L 407.294707 143.005482 
L 410.242235 137.692749 
L 413.189763 157.163636 
L 416.138471 174.018533 
L 419.085999 179.040158 
L 422.033527 182.311913 
L 424.981351 148.38136 
L 427.931827 107.082275 
L 430.878176 104.1963 
L 433.825115 157.581385 
L 436.772938 156.919927 
L 439.720761 208.859705 
L 442.668584 117.499957 
L 445.61906 178.167256 
L 448.563346 99.752532 
L 451.512348 169.865745 
L 454.459876 205.143737 
L 460.355523 166.170974 
L 463.303346 161.547954 
L 466.252938 86.889003 
L 469.199287 101.657574 
L 472.146815 161.547954 
L 475.094638 149.040656 
L 478.042461 213.80924 
L 480.991758 119.713202 
L 483.938402 148.38136 
L 486.888879 133.703838 
L 489.833754 152.286836 
L 492.781282 185.269903 
L 495.731169 180.009819 
L 498.677223 181.325454 
L 501.625046 175.401897 
L 504.575228 109.691722 
L 507.520693 108.635466 
L 510.468516 149.637085 
L 513.416044 153.213846 
L 516.373005 200.804306 
L 519.312869 138.357201 
L 522.259808 145.659354 
L 525.207631 121.71467 
L 528.15516 161.547954 
L 531.102983 208.859705 
L 534.050806 180.009819 
L 536.998924 177.377328 
L 539.946157 152.286836 
L 542.894275 101.657574 
L 545.842098 99.752532 
L 548.790216 136.496473 
L 551.737745 152.774771 
L 554.685862 182.311913 
L 557.633391 143.983422 
L 560.581214 157.581385 
L 563.531985 129.045393 
L 566.47745 149.637085 
L 569.424978 212.125676 
L 572.376044 157.581385 
L 575.320919 216.693793 
L 578.267858 149.637085 
L 581.220397 113.070012 
L 584.163504 119.713202 
L 587.112211 113.070012 
L 590.058561 157.581385 
L 593.007563 180.009819 
L 595.954207 161.547954 
L 598.903209 156.919927 
L 601.849853 121.71467 
L 604.798561 148.38136 
L 607.746384 215.323864 
L 610.694502 161.547954 
L 613.64203 196.46042 
L 616.589853 137.692749 
L 619.542098 96.29308 
L 622.488447 129.711194 
L 625.433617 117.499957 
L 628.381146 157.382951 
L 631.329263 183.40195 
L 634.277381 153.611083 
L 637.22491 147.648681 
L 640.172438 133.703838 
L 643.120261 143.005482 
L 646.073096 204.937191 
L 649.016497 165.927783 
L 651.964025 194.72162 
L 654.911554 148.38136 
L 657.861735 111.29673 
L 660.807789 135.17387 
L 663.755023 117.710791 
L 666.707857 189.210694 
L 669.653027 173.425524 
L 672.599082 152.286836 
L 675.54661 157.581385 
L 675.54661 157.581385 
" clip-path="url(#pe41c480e9c)" style="fill: none; stroke: #5dade2; stroke-opacity: 0.3; stroke-width: 1.4; stroke-linecap: square"/>
   </g>
   <g id="line2d_33">
    <path d="M 88.929515 212.125676 
L 91.877339 129.711194 
L 94.829583 104.1963 
L 97.773574 109.691722 
L 100.721397 147.648681 
L 103.668926 165.510846 
L 106.616454 221.256957 
L 109.564277 149.637085 
L 112.513869 138.357201 
L 115.460808 121.71467 
L 118.408926 139.580919 
L 121.356454 207.095034 
L 124.306046 152.774771 
L 127.252395 185.269903 
L 130.200218 147.648681 
L 133.147452 93.60831 
L 136.095864 108.635466 
L 139.043098 132.306837 
L 141.991511 157.163636 
L 144.938744 201.011055 
L 147.887157 133.703838 
L 150.83439 149.637085 
L 153.782803 129.045393 
L 156.730037 141.677927 
L 159.678744 226.774204 
L 162.625683 165.708892 
L 165.57439 187.759252 
L 168.521329 144.863364 
L 171.469742 95.304145 
L 174.416975 117.710791 
L 177.365388 105.676533 
L 180.312622 177.377328 
L 183.261919 200.804306 
L 186.208563 153.213846 
L 189.156386 130.762257 
L 192.103914 137.692749 
L 195.052327 147.648681 
L 198.001034 201.011055 
L 200.950331 170.78893 
L 203.896091 183.40195 
L 206.843619 157.581385 
L 209.791147 111.29673 
L 212.739265 130.762257 
L 215.693574 104.1963 
L 218.634617 177.377328 
L 221.58185 175.401897 
L 224.529674 185.269903 
L 227.476317 152.286836 
L 230.42532 101.657574 
L 233.371964 157.163636 
L 236.325682 190.589104 
L 239.267905 209.478716 
L 242.216907 186.452523 
L 245.167383 143.983422 
L 248.112258 111.29673 
L 251.059787 113.703142 
L 254.00761 117.499957 
L 256.955433 194.72162 
L 259.903256 170.303065 
L 262.851079 169.470024 
L 265.799787 156.919927 
L 268.746725 105.676533 
L 271.694549 156.919927 
L 274.644435 193.147806 
L 277.59049 189.210694 
L 280.540671 181.325454 
L 283.486431 161.547954 
L 286.433075 125.714817 
L 289.381487 104.1963 
L 292.32931 119.713202 
L 295.277133 170.303065 
L 298.225251 197.08126 
L 301.178086 166.170974 
L 304.125319 161.547954 
L 307.068721 95.304145 
L 310.016544 178.167256 
L 312.964367 183.40195 
L 315.91219 211.211454 
L 318.860013 187.759252 
L 321.807836 136.496473 
L 324.755365 121.925301 
L 327.702009 97.634827 
L 330.651306 110.360554 
L 333.601487 157.581385 
L 336.546952 180.009819 
L 339.49448 161.547954 
L 342.442598 178.167256 
L 345.390126 95.304145 
L 348.338244 157.581385 
L 351.286067 184.612751 
L 354.233596 185.269903 
L 357.181419 207.552607 
L 360.129832 137.692749 
L 363.080308 119.713202 
L 366.025478 93.60831 
L 368.973006 117.499957 
L 371.920829 157.382951 
L 374.868358 200.804306 
L 377.816475 169.865745 
L 380.764004 165.927783 
L 383.711827 97.634827 
L 386.658766 161.547954 
L 389.6116 173.425524 
L 392.563845 165.927783 
L 395.504593 213.80924 
L 398.451827 125.714817 
L 401.39965 133.703838 
L 404.347473 81.505955 
L 407.298539 130.762257 
L 410.247541 165.708892 
L 413.190942 182.311913 
L 416.138176 174.673857 
L 419.085999 165.708892 
L 422.034412 113.070012 
L 424.981645 144.863364 
L 427.928289 174.673857 
L 430.877292 185.269903 
L 433.825115 221.256957 
L 436.772938 121.71467 
L 439.719582 143.005482 
L 442.668289 85.543874 
L 445.615228 117.499957 
L 448.56423 169.865745 
L 451.511759 181.325454 
L 454.459876 170.78893 
L 457.4077 173.425524 
L 460.355523 110.360554 
L 463.303051 133.703838 
L 466.251169 179.040158 
L 469.198697 174.018533 
L 472.150058 209.478716 
L 475.095228 119.713202 
L 478.042756 130.762257 
L 480.990285 97.634827 
L 483.938108 110.360554 
L 486.885931 177.377328 
L 489.833459 152.286836 
L 492.786588 201.011055 
L 498.677813 121.71467 
L 501.625046 143.005482 
L 504.572869 173.425524 
L 507.522166 198.391592 
L 510.471169 224.513356 
L 513.418107 129.045393 
L 516.364457 133.703838 
L 519.313164 86.393473 
L 522.260103 123.91522 
L 525.208516 196.46042 
L 528.155454 145.659354 
L 531.107699 207.552607 
L 534.057291 129.711194 
L 537.000987 135.17387 
L 539.946452 137.692749 
L 542.895454 156.919927 
L 545.841804 185.269903 
L 548.79169 198.391592 
L 551.737745 149.637085 
L 554.686747 129.045393 
L 557.633391 101.657574 
L 560.582098 104.1963 
L 563.528742 190.589104 
L 566.47745 161.547954 
L 569.424978 211.211454 
L 572.37457 157.163636 
L 575.320919 109.691722 
L 578.269626 147.648681 
L 581.216565 165.510846 
L 584.165273 198.391592 
L 587.112211 208.859705 
L 590.060624 138.357201 
L 593.006384 133.703838 
L 595.956565 81.931171 
L 598.903504 128.113098 
L 601.851917 170.303065 
L 604.798855 153.611083 
L 607.747563 184.612751 
L 610.693617 165.510846 
L 613.643209 110.360554 
L 616.590148 157.581385 
L 619.538561 140.68197 
L 622.486089 205.143737 
L 625.434502 198.850108 
L 628.380556 157.163636 
L 631.330148 141.677927 
L 634.277087 72.992632 
L 637.225499 123.91522 
L 640.172438 200.804306 
L 643.121145 165.708892 
L 646.068379 200.804306 
L 649.016792 149.040656 
L 651.964025 117.499957 
L 654.911848 169.865745 
L 657.859966 117.499957 
L 660.808084 208.859705 
L 663.755318 189.210694 
L 666.704025 148.841834 
L 669.650964 157.845939 
L 672.60144 69.369339 
L 675.54661 130.762257 
L 675.54661 130.762257 
" clip-path="url(#pe41c480e9c)" style="fill: none; stroke: #154360; stroke-opacity: 0.3; stroke-width: 1.4; stroke-linecap: square"/>
   </g>
   <g id="line2d_34">
    <path d="M 88.9304 129.045393 
L 91.881465 117.710791 
L 94.82693 143.983422 
L 97.77328 182.311913 
L 100.721987 139.580919 
L 103.668926 165.510846 
L 106.617338 105.676533 
L 109.564572 165.510846 
L 112.512985 184.612751 
L 115.46464 193.147806 
L 118.408926 198.391592 
L 121.355864 157.581385 
L 124.304572 124.381848 
L 127.251511 105.676533 
L 130.200218 113.070012 
L 133.147746 153.213846 
L 136.095864 179.040158 
L 139.042803 169.470024 
L 141.991511 184.612751 
L 144.941692 105.676533 
L 147.890399 170.78893 
L 150.834685 157.581385 
L 153.783098 185.269903 
L 156.730037 202.974585 
L 159.678744 140.68197 
L 162.625388 117.499957 
L 165.57439 101.657574 
L 168.521034 119.713202 
L 171.469742 145.659354 
L 174.420513 165.927783 
L 177.365683 153.213846 
L 180.312327 165.927783 
L 183.26015 94.413909 
L 186.207973 179.040158 
L 189.159628 178.167256 
L 192.103914 179.040158 
L 195.052916 220.605385 
L 197.999265 129.045393 
L 200.947678 149.637085 
L 203.898744 91.593629 
L 206.845388 133.703838 
L 209.792032 157.163636 
L 212.739855 161.547954 
L 215.686499 170.303065 
L 218.636975 165.708892 
L 221.58185 121.925301 
L 224.530558 149.637085 
L 227.477791 180.009819 
L 230.425909 185.269903 
L 233.37727 211.211454 
L 236.322145 104.1963 
L 239.268789 133.703838 
L 242.217202 91.593629 
L 245.168857 113.703142 
L 248.114027 152.774771 
L 254.009084 170.303065 
L 256.956612 186.452523 
L 259.904435 126.346061 
L 262.855796 161.547954 
L 265.800081 184.612751 
L 268.746136 185.269903 
L 271.695728 216.693793 
L 274.642961 141.677927 
L 277.591374 133.703838 
L 280.538607 89.577986 
L 283.48702 104.1963 
L 286.433959 157.581385 
L 289.381782 143.005482 
L 292.332553 193.147806 
L 295.278313 175.401897 
L 298.230263 137.692749 
L 301.175138 135.17387 
L 304.121487 182.311913 
L 307.06931 174.673857 
L 310.016544 207.095034 
L 312.965251 126.346061 
L 315.91219 132.306837 
L 318.860898 90.851137 
L 321.810489 113.703142 
L 324.756544 192.885433 
L 327.703483 141.677927 
L 330.65219 213.039695 
L 333.599129 157.581385 
L 336.548721 141.677927 
L 339.49507 156.919927 
L 342.443482 165.708892 
L 345.390716 192.112081 
L 348.339129 201.011055 
L 351.289605 128.113098 
L 354.23507 138.490088 
L 357.181714 86.393473 
L 360.130421 102.019442 
L 363.07736 174.673857 
L 366.025773 132.306837 
L 368.973006 200.804306 
L 371.921419 161.547954 
L 374.868652 148.38136 
L 377.81736 166.302974 
L 380.766657 142.076236 
L 383.712711 193.147806 
L 386.659945 202.974585 
L 389.607768 126.514392 
L 392.555591 165.246773 
L 395.503414 77.46423 
L 398.451237 113.070012 
L 401.39906 165.708892 
L 404.346884 133.703838 
L 407.294707 207.552607 
L 410.245183 153.611083 
L 413.190648 144.863364 
L 416.138176 156.549467 
L 419.085999 143.983422 
L 422.033822 198.850108 
L 424.981645 197.329552 
L 427.929468 160.715283 
L 430.877586 139.580919 
L 433.827178 89.577986 
L 436.773527 91.593629 
L 439.723709 161.547954 
L 442.668879 143.983422 
L 445.616407 183.140371 
L 448.56423 160.622755 
L 451.512053 129.711194 
L 454.459876 187.759252 
L 457.4077 132.306837 
L 460.355523 200.804306 
L 463.303346 182.311913 
L 466.251169 181.325454 
L 469.202824 143.005482 
L 472.14711 89.577986 
L 475.094638 108.635466 
L 478.042461 166.540584 
L 480.98999 165.927783 
L 483.938108 180.536136 
L 486.885636 170.78893 
L 489.837881 121.71467 
L 492.783935 179.040158 
L 495.732053 123.91522 
L 498.68135 200.804306 
L 501.625931 186.452523 
L 504.576407 139.580919 
L 507.521577 141.677927 
L 510.470579 53.811339 
L 513.417223 125.714817 
L 516.364162 157.163636 
L 519.312575 157.382951 
L 522.259808 196.46042 
L 525.207631 157.382951 
L 528.159581 148.38136 
L 531.103572 165.510846 
L 534.051101 129.045393 
L 536.998924 189.210694 
L 539.951463 184.612751 
L 542.895454 169.470024 
L 545.842393 184.612751 
L 548.79169 65.316156 
L 551.738039 130.762257 
L 554.685862 132.306837 
L 557.637223 183.40195 
L 560.581214 186.452523 
L 563.529037 139.580919 
L 566.47686 142.474508 
L 569.424683 137.426939 
L 572.372801 149.637085 
L 575.320624 193.803628 
L 578.268153 193.934778 
L 581.217155 155.993711 
L 584.163799 165.510846 
L 587.115454 61.259148 
L 590.058561 138.357201 
L 593.007563 133.703838 
L 595.955386 152.774771 
L 598.903209 195.547639 
L 601.850737 148.38136 
L 604.798561 148.205527 
L 607.745499 135.17387 
L 610.694207 157.382951 
L 616.592506 208.859705 
L 619.536792 166.170974 
L 622.485794 169.865745 
L 625.433322 77.46423 
L 628.38144 129.711194 
L 631.329263 152.286836 
L 634.276792 146.455196 
L 637.224615 209.478716 
L 640.172733 135.658867 
L 643.120556 152.774771 
L 646.071622 132.306837 
L 649.016202 161.547954 
L 651.965204 180.009819 
L 654.912143 193.147806 
L 657.859377 152.774771 
L 660.807495 165.708892 
L 663.755318 77.46423 
L 666.703141 121.71467 
L 669.650964 152.286836 
L 672.598787 153.611083 
L 675.548968 212.125676 
L 675.548968 212.125676 
" clip-path="url(#pe41c480e9c)" style="fill: none; stroke: #e08a00; stroke-opacity: 0.3; stroke-width: 1.4; stroke-linecap: square"/>
   </g>
   <g id="line2d_35">
    <path d="M 88.930695 149.040656 
L 91.877633 165.927783 
L 94.826046 153.213846 
L 97.77328 130.762257 
L 100.721987 157.581385 
L 103.671284 143.005482 
L 106.617928 204.937191 
L 109.564867 193.803628 
L 112.513279 177.377328 
L 115.459923 166.170974 
L 118.408631 73.418697 
L 121.355864 133.703838 
L 124.304277 145.659354 
L 127.251511 183.40195 
L 130.204935 174.018533 
L 133.150105 148.38136 
L 136.096454 137.692749 
L 139.043098 129.045393 
L 141.991511 157.581385 
L 144.938449 198.391592 
L 147.888041 201.011055 
L 150.834096 161.547954 
L 153.782803 181.325454 
L 156.729742 81.931171 
L 159.678155 128.113098 
L 162.628041 143.983422 
L 165.574685 161.547954 
L 168.525751 180.009819 
L 171.470626 133.703838 
L 174.416975 147.648681 
L 177.365388 137.692749 
L 180.312327 139.580919 
L 183.261624 198.850108 
L 186.208268 196.46042 
L 189.15668 169.865745 
L 192.103619 179.040158 
L 195.052032 81.707937 
L 197.999265 125.714817 
L 200.947973 139.580919 
L 203.894912 140.68197 
L 206.843324 183.40195 
L 209.790263 107.082275 
L 212.738971 157.163636 
L 215.685909 133.703838 
L 218.634617 147.648681 
L 221.583914 181.325454 
L 224.530853 200.804306 
L 227.478971 165.708892 
L 230.426499 179.040158 
L 233.373143 94.413909 
L 236.321556 121.925301 
L 239.268789 145.659354 
L 242.216907 143.005482 
L 245.163551 208.859705 
L 248.113438 124.381848 
L 251.060082 153.611083 
L 254.008494 121.925301 
L 256.955728 149.040656 
L 259.904435 205.143737 
L 262.851374 186.452523 
L 265.800966 187.759252 
L 268.74702 165.510846 
L 271.696317 96.29308 
L 274.642666 109.691722 
L 277.591079 147.648681 
L 280.541261 149.637085 
L 283.488199 196.46042 
L 286.434254 119.713202 
L 289.382666 152.774771 
L 292.329605 128.113098 
L 295.277133 161.547954 
L 298.225251 207.552607 
L 301.177791 161.547954 
L 304.121487 197.08126 
L 307.069016 175.401897 
L 310.016544 101.657574 
L 312.964367 108.635466 
L 315.911895 128.113098 
L 318.860013 149.637085 
L 321.807836 196.46042 
L 324.755659 123.91522 
L 327.703483 139.580919 
L 330.650127 141.677927 
L 333.599129 138.357201 
L 336.545773 216.693793 
L 339.496249 175.401897 
L 342.442598 193.147806 
L 345.390126 152.286836 
L 348.33795 105.676533 
L 351.285773 117.499957 
L 354.23507 128.113098 
L 357.181714 135.17387 
L 360.129242 182.311913 
L 363.082371 139.580919 
L 366.024593 141.677927 
L 368.973006 135.17387 
L 371.91965 144.863364 
L 374.868358 235.395411 
L 377.815296 169.865745 
L 380.764299 218.13533 
L 383.711532 149.040656 
L 386.659355 99.752532 
L 389.607178 113.703142 
L 392.555002 119.713202 
L 395.502825 165.510846 
L 398.450648 184.612751 
L 401.398766 153.611083 
L 404.348063 148.38136 
L 407.294412 129.711194 
L 410.24194 143.005482 
L 413.190058 220.605385 
L 416.137586 152.286836 
L 419.08541 193.147806 
L 422.033233 152.286836 
L 424.987541 97.634827 
L 427.931237 130.762257 
L 430.877292 101.657574 
L 433.82482 170.78893 
L 436.772348 165.510846 
L 439.720171 156.919927 
L 442.667994 145.659354 
L 445.615818 139.580919 
L 448.568652 144.863364 
L 451.512643 218.13533 
L 454.459582 198.850108 
L 457.407405 205.143737 
L 460.355523 161.547954 
L 463.303346 115.039437 
L 466.252348 121.71467 
L 469.198992 90.851137 
L 472.147405 178.167256 
L 475.094638 161.547954 
L 478.042756 149.040656 
L 480.990285 161.547954 
L 483.938108 109.691722 
L 486.885931 156.919927 
L 489.833754 197.08126 
L 492.780987 180.009819 
L 495.729105 181.325454 
L 498.676634 152.774771 
L 501.624752 119.713202 
L 504.57228 121.925301 
L 507.525114 105.676533 
L 510.469105 147.648681 
L 513.416634 185.269903 
L 516.364162 152.286836 
L 519.312575 177.377328 
L 522.259808 99.752532 
L 525.207631 174.018533 
L 528.154275 200.804306 
L 531.103277 198.850108 
L 534.051101 218.13533 
L 536.998924 136.496473 
L 539.946747 104.1963 
L 542.89457 105.676533 
L 545.842393 108.635466 
L 548.789921 157.382951 
L 551.738334 165.927783 
L 554.685862 149.040656 
L 557.63398 170.303065 
L 560.584751 94.413909 
L 563.529627 157.581385 
L 566.477155 196.46042 
L 569.424978 194.72162 
L 572.372506 216.693793 
L 575.320329 149.637085 
L 578.268447 121.925301 
L 581.21627 111.29673 
L 584.163799 99.752532 
L 587.111622 161.547954 
L 590.059445 170.78893 
L 593.007268 165.510846 
L 595.955091 165.927783 
L 598.902914 90.182786 
L 601.850737 165.927783 
L 604.798561 174.018533 
L 607.746384 205.143737 
L 610.694207 211.211454 
L 613.64203 126.346061 
L 616.589853 133.703838 
L 619.537971 100.987375 
L 622.485794 113.703142 
L 625.432438 152.286836 
L 628.38144 161.547954 
L 631.328969 157.163636 
L 634.276792 169.865745 
L 637.22491 108.635466 
L 640.172733 165.708892 
L 643.119672 174.673857 
L 646.069853 198.850108 
L 649.018266 212.77856 
L 651.965204 143.983422 
L 654.910964 136.496473 
L 657.860261 95.304145 
L 660.80661 121.71467 
L 663.755907 156.919927 
L 666.701962 165.510846 
L 669.651553 138.357201 
L 672.598787 173.425524 
L 675.546905 104.1963 
L 675.546905 104.1963 
" clip-path="url(#pe41c480e9c)" style="fill: none; stroke: #8e44ad; stroke-opacity: 0.3; stroke-width: 1.4; stroke-linecap: square"/>
   </g>
   <g id="line2d_36">
    <path d="M 88.92981 161.547954 
L 91.878223 189.210694 
L 94.825456 157.581385 
L 97.773869 148.38136 
L 100.721103 115.507045 
L 103.671284 152.774771 
L 106.616749 220.605385 
L 109.564277 170.78893 
L 112.511806 207.095034 
L 115.459923 148.38136 
L 118.407452 93.60831 
L 121.35557 121.925301 
L 124.303098 107.082275 
L 127.2521 166.803198 
L 130.199334 160.75494 
L 133.147157 147.648681 
L 136.09498 149.637085 
L 139.043098 119.713202 
L 144.938449 212.125676 
L 147.886273 197.08126 
L 150.834096 225.815206 
L 153.781624 165.510846 
L 156.729742 121.925301 
L 159.67727 128.952182 
L 162.625388 104.1963 
L 165.573211 160.715283 
L 168.521329 174.673857 
L 171.468563 165.510846 
L 174.416975 175.401897 
L 177.364209 85.543874 
L 180.313506 174.8486 
L 183.259266 199.935894 
L 186.207678 198.391592 
L 189.154617 193.147806 
L 192.103619 153.213846 
L 195.051442 104.1963 
L 197.998971 117.710791 
L 200.946499 90.851137 
L 203.894322 149.040656 
L 206.842145 161.547954 
L 209.789968 158.374991 
L 212.737791 146.720452 
L 215.685615 93.60831 
L 218.633438 170.78893 
L 221.581261 169.470024 
L 224.529084 221.256957 
L 227.476907 193.147806 
L 230.42473 157.163636 
L 233.372259 128.113098 
L 236.328336 121.925301 
L 239.268494 109.691722 
L 242.217202 147.648681 
L 245.164141 174.216173 
L 248.112848 142.076236 
L 251.059787 153.611083 
L 254.014979 95.304145 
L 256.955433 165.708892 
L 259.904435 187.759252 
L 262.851079 207.095034 
L 265.799787 196.46042 
L 268.746725 136.496473 
L 271.695728 135.17387 
L 274.647088 97.634827 
L 277.600217 104.1963 
L 280.538313 161.547954 
L 283.48702 166.803198 
L 286.433664 173.188301 
L 289.39151 174.673857 
L 292.329605 93.60831 
L 295.28922 166.170974 
L 298.224957 185.269903 
L 301.172485 193.803628 
L 304.120308 216.693793 
L 307.068131 119.713202 
L 310.015954 145.659354 
L 312.964367 86.393473 
L 315.911895 132.306837 
L 318.859718 171.177593 
L 321.807836 148.841834 
L 324.755659 166.170974 
L 327.703483 161.547954 
L 330.651011 94.413909 
L 333.598834 165.927783 
L 336.546657 181.325454 
L 339.493891 193.803628 
L 342.442598 208.859705 
L 345.390126 138.357201 
L 348.33795 141.677927 
L 351.285773 97.23236 
L 354.233596 132.905612 
L 357.181419 152.774771 
L 360.129242 161.547954 
L 363.079718 174.673857 
L 366.024888 161.547954 
L 368.972711 117.499957 
L 371.920829 149.637085 
L 374.868358 198.391592 
L 377.815296 201.796567 
L 380.764004 229.458253 
L 383.711827 149.637085 
L 386.659945 152.286836 
L 389.607473 105.676533 
L 392.558244 119.713202 
L 395.503119 169.470024 
L 398.451237 142.474508 
L 401.397881 174.479692 
L 404.346589 149.637085 
L 407.293528 117.499957 
L 410.24253 128.113098 
L 413.189174 188.630176 
L 416.138176 173.188301 
L 419.08482 231.087025 
L 422.03618 144.863364 
L 424.981351 148.38136 
L 427.929468 97.634827 
L 430.876997 124.381848 
L 433.825115 173.425524 
L 436.771759 152.286836 
L 439.720466 185.269903 
L 442.668289 156.919927 
L 445.616112 133.703838 
L 448.563935 149.260416 
L 451.514412 177.337837 
L 454.458697 183.40195 
L 457.407405 215.323864 
L 460.355228 144.863364 
L 463.303051 139.845196 
L 466.251169 81.931171 
L 469.200466 113.703142 
L 472.14711 165.708892 
L 475.094344 139.580919 
L 478.042461 190.589104 
L 480.996475 143.983422 
L 483.938402 113.703142 
L 486.885636 161.547954 
L 489.833459 153.611083 
L 492.781577 198.391592 
L 495.729105 224.513356 
L 498.677223 143.005482 
L 501.636248 141.677927 
L 504.572575 95.304145 
L 507.519808 109.691722 
L 510.471758 180.009819 
L 513.416044 145.659354 
L 516.363572 184.612751 
L 519.311395 157.581385 
L 522.259219 110.360554 
L 525.207631 149.637085 
L 528.15516 133.703838 
L 531.103277 189.210694 
L 534.050806 179.040158 
L 536.998629 157.382951 
L 539.9494 148.38136 
L 542.89457 81.707937 
L 545.842098 113.703142 
L 548.789037 183.40195 
L 551.738039 140.68197 
L 554.684683 196.46042 
L 557.633391 149.040656 
L 560.58033 108.635466 
L 563.529037 153.611083 
L 566.47686 138.357201 
L 569.433232 193.147806 
L 572.384298 222.168999 
L 575.320919 152.81659 
L 578.268153 148.38136 
L 581.215976 73.216309 
L 584.164094 121.925301 
L 587.114275 182.311913 
L 590.060035 143.983422 
L 593.007268 169.470024 
L 595.955386 147.648681 
L 598.902914 117.710791 
L 601.850737 166.170974 
L 604.798561 133.703838 
L 607.759059 198.391592 
L 610.694796 193.147806 
L 613.642325 157.163636 
L 616.589853 169.865745 
L 619.537676 68.516359 
L 622.485794 126.514392 
L 625.433617 169.865745 
L 628.381146 161.547954 
L 631.328969 186.452523 
L 634.276792 143.983422 
L 637.224615 117.710791 
L 640.171554 156.919927 
L 643.120556 129.711194 
L 646.068084 221.256957 
L 649.015907 197.08126 
L 651.96373 156.919927 
L 654.911259 166.302974 
L 657.859082 67.07301 
L 660.806905 125.714817 
L 663.754728 152.774771 
L 666.703141 161.547954 
L 669.650964 174.673857 
L 672.598492 149.637085 
L 675.546315 110.360554 
L 675.546315 110.360554 
" clip-path="url(#pe41c480e9c)" style="fill: none; stroke: #1e8449; stroke-opacity: 0.3; stroke-width: 1.4; stroke-linecap: square"/>
   </g>
   <g id="line2d_37">
    <path d="M 59.597305 153.395204 
L 704.88 153.395204 
" clip-path="url(#pe41c480e9c)" style="fill: none; stroke-dasharray: 1,1.65; stroke-dashoffset: 0; stroke: #000000"/>
   </g>
   <g id="patch_3">
    <path d="M 59.597305 257.1855 
L 59.597305 32.02125 
" style="fill: none; stroke: #000000; stroke-width: 0.8; stroke-linejoin: miter; stroke-linecap: square"/>
   </g>
   <g id="patch_4">
    <path d="M 704.88 257.1855 
L 704.88 32.02125 
" style="fill: none; stroke: #000000; stroke-width: 0.8; stroke-linejoin: miter; stroke-linecap: square"/>
   </g>
   <g id="patch_5">
    <path d="M 59.597305 257.1855 
L 704.88 257.1855 
" style="fill: none; stroke: #000000; stroke-width: 0.8; stroke-linejoin: miter; stroke-linecap: square"/>
   </g>
   <g id="patch_6">
    <path d="M 59.597305 32.02125 
L 704.88 32.02125 
" style="fill: none; stroke: #000000; stroke-width: 0.8; stroke-linejoin: miter; stroke-linecap: square"/>
   </g>
   <g id="text_18">
    <!-- Raw motor speed at steady state: all settings overlaid -->
    <g transform="translate(59.597305 26.02125) scale(0.15 -0.15)">
     <defs>
      <path id="LiberationSerif-Bold-35" d="M 1634 1775 
L 1634 313 
L 2172 228 
L 2172 0 
L 150 0 
L 150 228 
L 647 313 
L 647 3881 
L 109 3963 
L 109 4191 
L 2113 4191 
Q 3038 4191 3494 3906 
Q 3950 3622 3950 3019 
Q 3950 2119 3106 1863 
L 4225 313 
L 4678 228 
L 4678 0 
L 3322 0 
L 2153 1775 
L 1634 1775 
z
M 2975 3013 
Q 2975 3481 2781 3664 
Q 2588 3847 2072 3847 
L 1634 3847 
L 1634 2119 
L 2088 2119 
Q 2569 2119 2772 2319 
Q 2975 2519 2975 3013 
z
" transform="scale(0.015625)"/>
      <path id="LiberationSerif-Bold-44" d="M 1706 3003 
Q 2809 3003 2809 2191 
L 2809 281 
L 3103 206 
L 3103 0 
L 2022 0 
L 1953 225 
Q 1709 59 1512 -2 
Q 1316 -63 1116 -63 
Q 206 -63 206 813 
Q 206 1144 340 1342 
Q 475 1541 728 1636 
Q 981 1731 1525 1744 
L 1906 1753 
L 1906 2181 
Q 1906 2713 1472 2713 
Q 1209 2713 884 2550 
L 766 2184 
L 559 2184 
L 559 2894 
Q 1031 2966 1253 2984 
Q 1475 3003 1706 3003 
z
M 1906 1475 
L 1644 1466 
Q 1341 1453 1223 1306 
Q 1106 1159 1106 831 
Q 1106 566 1200 441 
Q 1294 316 1444 316 
Q 1656 316 1906 425 
L 1906 1475 
z
" transform="scale(0.015625)"/>
      <path id="LiberationSerif-Bold-5a" d="M 2731 2644 
L 3409 972 
L 3978 2656 
L 3634 2731 
L 3634 2938 
L 4588 2938 
L 4588 2731 
L 4363 2669 
L 3375 -63 
L 2997 -63 
L 2325 1584 
L 1656 -63 
L 1278 -63 
L 238 2656 
L 19 2731 
L 19 2938 
L 1472 2938 
L 1472 2731 
L 1122 2650 
L 1753 972 
L 2434 2644 
L 2731 2644 
z
" transform="scale(0.015625)"/>
      <path id="LiberationSerif-Bold-3" transform="scale(0.015625)"/>
      <path id="LiberationSerif-Bold-50" d="M 1356 2681 
L 1569 2791 
Q 2006 3016 2353 3016 
Q 2878 3016 3053 2634 
Q 3694 3016 4134 3016 
Q 4928 3016 4928 2150 
L 4928 281 
L 5222 206 
L 5222 0 
L 3763 0 
L 3763 206 
L 4025 281 
L 4025 2028 
Q 4025 2291 3923 2437 
Q 3822 2584 3616 2584 
Q 3384 2584 3116 2453 
Q 3147 2322 3147 2150 
L 3147 281 
L 3441 206 
L 3441 0 
L 1981 0 
L 1981 206 
L 2244 281 
L 2244 2028 
Q 2244 2291 2142 2437 
Q 2041 2584 1834 2584 
Q 1628 2584 1363 2463 
L 1363 281 
L 1631 206 
L 1631 0 
L 172 0 
L 172 206 
L 459 281 
L 459 2656 
L 172 2731 
L 172 2938 
L 1313 2938 
L 1356 2681 
z
" transform="scale(0.015625)"/>
      <path id="LiberationSerif-Bold-52" d="M 2956 1484 
Q 2956 694 2617 315 
Q 2278 -63 1581 -63 
Q 906 -63 575 320 
Q 244 703 244 1484 
Q 244 2263 580 2639 
Q 916 3016 1606 3016 
Q 2303 3016 2629 2627 
Q 2956 2238 2956 1484 
z
M 2041 1484 
Q 2041 2172 1939 2436 
Q 1838 2700 1588 2700 
Q 1347 2700 1253 2447 
Q 1159 2194 1159 1484 
Q 1159 763 1254 506 
Q 1350 250 1588 250 
Q 1834 250 1937 520 
Q 2041 791 2041 1484 
z
" transform="scale(0.015625)"/>
      <path id="LiberationSerif-Bold-57" d="M 1369 -63 
Q 947 -63 717 128 
Q 488 319 488 678 
L 488 2613 
L 103 2613 
L 103 2816 
L 556 2938 
L 922 3603 
L 1391 3603 
L 1391 2938 
L 2009 2938 
L 2009 2613 
L 1391 2613 
L 1391 734 
Q 1391 531 1475 428 
Q 1559 325 1697 325 
Q 1863 325 2103 375 
L 2103 109 
Q 2009 44 1782 -9 
Q 1556 -63 1369 -63 
z
" transform="scale(0.015625)"/>
      <path id="LiberationSerif-Bold-55" d="M 1441 2328 
Q 1778 2703 2045 2867 
Q 2313 3031 2534 3031 
L 2703 3031 
L 2703 1959 
L 2528 1959 
L 2344 2353 
Q 2147 2353 1897 2267 
Q 1647 2181 1456 2066 
L 1456 281 
L 1928 206 
L 1928 0 
L 172 0 
L 172 206 
L 553 281 
L 553 2656 
L 172 2731 
L 172 2938 
L 1406 2938 
L 1441 2328 
z
" transform="scale(0.015625)"/>
      <path id="LiberationSerif-Bold-56" d="M 2334 931 
Q 2334 441 2032 189 
Q 1731 -63 1156 -63 
Q 919 -63 633 -11 
Q 347 41 200 97 
L 200 897 
L 406 897 
L 525 484 
Q 634 375 812 301 
Q 991 228 1175 228 
Q 1447 228 1580 345 
Q 1713 463 1713 644 
Q 1713 816 1584 919 
Q 1456 1022 1025 1156 
Q 572 1297 383 1540 
Q 194 1784 194 2141 
Q 194 2541 491 2778 
Q 788 3016 1256 3016 
Q 1578 3016 2122 2925 
L 2122 2172 
L 1916 2172 
L 1816 2516 
Q 1725 2606 1561 2664 
Q 1397 2722 1250 2722 
Q 1025 2722 917 2630 
Q 809 2538 809 2378 
Q 809 2213 943 2106 
Q 1078 2000 1497 1875 
Q 1953 1734 2143 1504 
Q 2334 1275 2334 931 
z
" transform="scale(0.015625)"/>
      <path id="LiberationSerif-Bold-53" d="M 1278 2788 
Q 1613 3016 2091 3016 
Q 2703 3016 3001 2656 
Q 3300 2297 3300 1522 
Q 3300 753 2953 345 
Q 2606 -63 1956 -63 
Q 1625 -63 1288 22 
Q 1306 -184 1306 -441 
L 1306 -1081 
L 1738 -1156 
L 1738 -1363 
L 84 -1363 
L 84 -1156 
L 403 -1081 
L 403 2656 
L 81 2731 
L 81 2938 
L 1272 2938 
L 1278 2788 
z
M 2384 1500 
Q 2384 2669 1841 2669 
Q 1550 2669 1306 2550 
L 1306 334 
Q 1559 269 1834 269 
Q 2384 269 2384 1500 
z
" transform="scale(0.015625)"/>
      <path id="LiberationSerif-Bold-48" d="M 1544 3009 
Q 2141 3009 2408 2690 
Q 2675 2372 2675 1700 
L 2675 1444 
L 1134 1444 
L 1134 1394 
Q 1134 928 1209 731 
Q 1284 534 1453 431 
Q 1622 328 1916 328 
Q 2191 328 2609 419 
L 2609 178 
Q 2438 75 2164 8 
Q 1891 -59 1631 -59 
Q 909 -59 564 317 
Q 219 694 219 1484 
Q 219 2253 548 2631 
Q 878 3009 1544 3009 
z
M 1509 2694 
Q 1322 2694 1230 2491 
Q 1138 2288 1138 1772 
L 1819 1772 
Q 1819 2191 1791 2361 
Q 1763 2531 1695 2612 
Q 1628 2694 1509 2694 
z
" transform="scale(0.015625)"/>
      <path id="LiberationSerif-Bold-47" d="M 2291 166 
Q 2116 53 2022 17 
Q 1928 -19 1809 -41 
Q 1691 -63 1547 -63 
Q 897 -63 578 310 
Q 259 684 259 1459 
Q 259 2222 601 2619 
Q 944 3016 1594 3016 
Q 1934 3016 2281 2931 
Q 2263 3034 2263 3416 
L 2263 4159 
L 1963 4234 
L 1963 4441 
L 3166 4441 
L 3166 281 
L 3488 206 
L 3488 0 
L 2356 0 
L 2291 166 
z
M 1175 1484 
Q 1175 900 1322 592 
Q 1469 284 1744 284 
Q 1994 284 2263 419 
L 2263 2631 
Q 2019 2697 1769 2697 
Q 1488 2697 1331 2389 
Q 1175 2081 1175 1484 
z
" transform="scale(0.015625)"/>
      <path id="LiberationSerif-Bold-5c" d="M 1444 -91 
L 269 2656 
L 63 2731 
L 63 2938 
L 1566 2938 
L 1566 2731 
L 1216 2650 
L 1906 1025 
L 2522 2656 
L 2178 2731 
L 2178 2938 
L 3138 2938 
L 3138 2731 
L 2925 2669 
L 1766 -184 
Q 1566 -694 1416 -923 
Q 1266 -1153 1083 -1267 
Q 900 -1381 666 -1381 
Q 413 -1381 150 -1322 
L 150 -566 
L 338 -566 
L 472 -959 
Q 563 -1031 703 -1031 
Q 822 -1031 912 -975 
Q 1003 -919 1083 -812 
Q 1163 -706 1234 -551 
Q 1306 -397 1444 -91 
z
" transform="scale(0.015625)"/>
      <path id="LiberationSerif-Bold-1d" d="M 1041 -91 
Q 822 -91 673 59 
Q 525 209 525 428 
Q 525 647 673 797 
Q 822 947 1041 947 
Q 1256 947 1407 797 
Q 1559 647 1559 428 
Q 1559 213 1409 61 
Q 1259 -91 1041 -91 
z
M 1041 1963 
Q 822 1963 673 2113 
Q 525 2263 525 2481 
Q 525 2700 670 2850 
Q 816 3000 1041 3000 
Q 1263 3000 1411 2848 
Q 1559 2697 1559 2481 
Q 1559 2266 1409 2114 
Q 1259 1963 1041 1963 
z
" transform="scale(0.015625)"/>
      <path id="LiberationSerif-Bold-4f" d="M 1347 281 
L 1669 206 
L 1669 0 
L 125 0 
L 125 206 
L 444 281 
L 444 4159 
L 144 4234 
L 144 4441 
L 1347 4441 
L 1347 281 
z
" transform="scale(0.015625)"/>
      <path id="LiberationSerif-Bold-4c" d="M 1363 281 
L 1684 206 
L 1684 0 
L 141 0 
L 141 206 
L 459 281 
L 459 2656 
L 159 2731 
L 159 2938 
L 1363 2938 
L 1363 281 
z
M 428 3963 
Q 428 4166 570 4303 
Q 713 4441 909 4441 
Q 1109 4441 1248 4302 
Q 1388 4163 1388 3963 
Q 1388 3766 1250 3623 
Q 1113 3481 909 3481 
Q 709 3481 568 3620 
Q 428 3759 428 3963 
z
" transform="scale(0.015625)"/>
      <path id="LiberationSerif-Bold-51" d="M 1356 2681 
L 1569 2791 
Q 2006 3016 2356 3016 
Q 3169 3016 3169 2150 
L 3169 281 
L 3463 206 
L 3463 0 
L 2003 0 
L 2003 206 
L 2266 281 
L 2266 2028 
Q 2266 2291 2155 2437 
Q 2044 2584 1838 2584 
Q 1600 2584 1363 2478 
L 1363 281 
L 1631 206 
L 1631 0 
L 172 0 
L 172 206 
L 459 281 
L 459 2656 
L 172 2731 
L 172 2938 
L 1313 2938 
L 1356 2681 
z
" transform="scale(0.015625)"/>
      <path id="LiberationSerif-Bold-4a" d="M 803 1084 
Q 247 1319 247 2000 
Q 247 2488 587 2752 
Q 928 3016 1563 3016 
Q 1697 3016 1908 2992 
Q 2119 2969 2216 2938 
L 2919 3284 
L 3028 3150 
L 2672 2644 
Q 2866 2406 2866 2000 
Q 2866 1503 2530 1236 
Q 2194 969 1550 969 
Q 1303 969 1072 1006 
L 997 769 
Q 1003 678 1112 598 
Q 1222 519 1381 519 
L 2066 519 
Q 3138 519 3138 -306 
Q 3138 -647 2952 -892 
Q 2766 -1138 2405 -1275 
Q 2044 -1413 1506 -1413 
Q 869 -1413 519 -1230 
Q 169 -1047 169 -728 
Q 169 -588 283 -456 
Q 397 -325 725 -134 
Q 541 -63 411 115 
Q 281 294 281 491 
L 803 1084 
z
M 2453 -519 
Q 2453 -222 2056 -222 
L 1066 -222 
Q 791 -422 791 -675 
Q 791 -875 983 -975 
Q 1175 -1075 1509 -1075 
Q 1963 -1075 2208 -928 
Q 2453 -781 2453 -519 
z
M 1544 1281 
Q 1775 1281 1878 1461 
Q 1981 1641 1981 2000 
Q 1981 2359 1879 2529 
Q 1778 2700 1544 2700 
Q 1328 2700 1229 2529 
Q 1131 2359 1131 2000 
Q 1131 1641 1228 1461 
Q 1325 1281 1544 1281 
z
" transform="scale(0.015625)"/>
      <path id="LiberationSerif-Bold-59" d="M 1813 -63 
L 1434 -63 
L 206 2656 
L 0 2731 
L 0 2938 
L 1503 2938 
L 1503 2731 
L 1153 2650 
L 1906 975 
L 2584 2656 
L 2241 2731 
L 2241 2938 
L 3200 2938 
L 3200 2731 
L 2988 2669 
L 1813 -63 
z
" transform="scale(0.015625)"/>
     </defs>
     <use xlink:href="#LiberationSerif-Bold-35"/>
     <use xlink:href="#LiberationSerif-Bold-44" transform="translate(72.21875 0)"/>
     <use xlink:href="#LiberationSerif-Bold-5a" transform="translate(122.21875 0)"/>
     <use xlink:href="#LiberationSerif-Bold-3" transform="translate(194.4375 0)"/>
     <use xlink:href="#LiberationSerif-Bold-50" transform="translate(219.4375 0)"/>
     <use xlink:href="#LiberationSerif-Bold-52" transform="translate(302.734375 0)"/>
     <use xlink:href="#LiberationSerif-Bold-57" transform="translate(352.734375 0)"/>
     <use xlink:href="#LiberationSerif-Bold-52" transform="translate(386.03125 0)"/>
     <use xlink:href="#LiberationSerif-Bold-55" transform="translate(436.03125 0)"/>
     <use xlink:href="#LiberationSerif-Bold-3" transform="translate(478.609375 0)"/>
     <use xlink:href="#LiberationSerif-Bold-56" transform="translate(503.609375 0)"/>
     <use xlink:href="#LiberationSerif-Bold-53" transform="translate(542.53125 0)"/>
     <use xlink:href="#LiberationSerif-Bold-48" transform="translate(598.140625 0)"/>
     <use xlink:href="#LiberationSerif-Bold-48" transform="translate(642.53125 0)"/>
     <use xlink:href="#LiberationSerif-Bold-47" transform="translate(686.921875 0)"/>
     <use xlink:href="#LiberationSerif-Bold-3" transform="translate(742.53125 0)"/>
     <use xlink:href="#LiberationSerif-Bold-44" transform="translate(767.53125 0)"/>
     <use xlink:href="#LiberationSerif-Bold-57" transform="translate(817.53125 0)"/>
     <use xlink:href="#LiberationSerif-Bold-3" transform="translate(850.828125 0)"/>
     <use xlink:href="#LiberationSerif-Bold-56" transform="translate(875.828125 0)"/>
     <use xlink:href="#LiberationSerif-Bold-57" transform="translate(914.75 0)"/>
     <use xlink:href="#LiberationSerif-Bold-48" transform="translate(948.046875 0)"/>
     <use xlink:href="#LiberationSerif-Bold-44" transform="translate(992.4375 0)"/>
     <use xlink:href="#LiberationSerif-Bold-47" transform="translate(1042.4375 0)"/>
     <use xlink:href="#LiberationSerif-Bold-5c" transform="translate(1098.046875 0)"/>
     <use xlink:href="#LiberationSerif-Bold-3" transform="translate(1148.046875 0)"/>
     <use xlink:href="#LiberationSerif-Bold-56" transform="translate(1173.046875 0)"/>
     <use xlink:href="#LiberationSerif-Bold-57" transform="translate(1211.96875 0)"/>
     <use xlink:href="#LiberationSerif-Bold-44" transform="translate(1245.265625 0)"/>
     <use xlink:href="#LiberationSerif-Bold-57" transform="translate(1295.265625 0)"/>
     <use xlink:href="#LiberationSerif-Bold-48" transform="translate(1328.5625 0)"/>
     <use xlink:href="#LiberationSerif-Bold-1d" transform="translate(1372.953125 0)"/>
     <use xlink:href="#LiberationSerif-Bold-3" transform="translate(1406.25 0)"/>
     <use xlink:href="#LiberationSerif-Bold-44" transform="translate(1431.25 0)"/>
     <use xlink:href="#LiberationSerif-Bold-4f" transform="translate(1481.25 0)"/>
     <use xlink:href="#LiberationSerif-Bold-4f" transform="translate(1509.03125 0)"/>
     <use xlink:href="#LiberationSerif-Bold-3" transform="translate(1536.8125 0)"/>
     <use xlink:href="#LiberationSerif-Bold-56" transform="translate(1561.8125 0)"/>
     <use xlink:href="#LiberationSerif-Bold-48" transform="translate(1600.734375 0)"/>
     <use xlink:href="#LiberationSerif-Bold-57" transform="translate(1645.125 0)"/>
     <use xlink:href="#LiberationSerif-Bold-57" transform="translate(1678.421875 0)"/>
     <use xlink:href="#LiberationSerif-Bold-4c" transform="translate(1711.71875 0)"/>
     <use xlink:href="#LiberationSerif-Bold-51" transform="translate(1739.5 0)"/>
     <use xlink:href="#LiberationSerif-Bold-4a" transform="translate(1795.109375 0)"/>
     <use xlink:href="#LiberationSerif-Bold-56" transform="translate(1845.109375 0)"/>
     <use xlink:href="#LiberationSerif-Bold-3" transform="translate(1884.03125 0)"/>
     <use xlink:href="#LiberationSerif-Bold-52" transform="translate(1909.03125 0)"/>
     <use xlink:href="#LiberationSerif-Bold-59" transform="translate(1959.03125 0)"/>
     <use xlink:href="#LiberationSerif-Bold-48" transform="translate(2009.03125 0)"/>
     <use xlink:href="#LiberationSerif-Bold-55" transform="translate(2053.421875 0)"/>
     <use xlink:href="#LiberationSerif-Bold-4f" transform="translate(2097.8125 0)"/>
     <use xlink:href="#LiberationSerif-Bold-44" transform="translate(2125.59375 0)"/>
     <use xlink:href="#LiberationSerif-Bold-4c" transform="translate(2175.59375 0)"/>
     <use xlink:href="#LiberationSerif-Bold-47" transform="translate(2203.375 0)"/>
    </g>
   </g>
   <g id="legend_1">
    <g id="line2d_38">
     <path d="M 201.670527 310.463423 
L 213.670527 310.463423 
L 225.670527 310.463423 
" style="fill: none; stroke: #c0392b; stroke-width: 2.38; stroke-linecap: square"/>
    </g>
    <g id="text_19">
     <!-- A: baseline (Kp 1.56, Ki 41.2) -->
     <g transform="translate(235.270527 314.663423) scale(0.12 -0.12)">
      <defs>
       <path id="LiberationSerif-24" d="M 1441 166 
L 1441 0 
L 63 0 
L 63 166 
L 538 250 
L 1966 4225 
L 2559 4225 
L 4044 250 
L 4575 166 
L 4575 0 
L 2803 0 
L 2803 166 
L 3366 250 
L 2950 1459 
L 1300 1459 
L 878 250 
L 1441 166 
z
M 2113 3775 
L 1394 1741 
L 2853 1741 
L 2113 3775 
z
" transform="scale(0.015625)"/>
       <path id="LiberationSerif-1d" d="M 1259 288 
Q 1259 134 1151 21 
Q 1044 -91 884 -91 
Q 722 -91 614 21 
Q 506 134 506 288 
Q 506 447 615 556 
Q 725 666 884 666 
Q 1041 666 1150 558 
Q 1259 450 1259 288 
z
M 1259 2625 
Q 1259 2466 1150 2356 
Q 1041 2247 884 2247 
Q 725 2247 615 2356 
Q 506 2466 506 2625 
Q 506 2778 614 2890 
Q 722 3003 884 3003 
Q 1044 3003 1151 2890 
Q 1259 2778 1259 2625 
z
" transform="scale(0.015625)"/>
       <path id="LiberationSerif-45" d="M 2394 1550 
Q 2394 2125 2194 2406 
Q 1994 2688 1575 2688 
Q 1391 2688 1209 2655 
Q 1028 2622 947 2584 
L 947 256 
Q 1209 206 1575 206 
Q 2006 206 2200 543 
Q 2394 881 2394 1550 
z
M 428 4225 
L 0 4300 
L 0 4441 
L 947 4441 
L 947 3391 
Q 947 3222 928 2772 
Q 1241 3016 1716 3016 
Q 2316 3016 2636 2652 
Q 2956 2288 2956 1550 
Q 2956 759 2604 348 
Q 2253 -63 1588 -63 
Q 1319 -63 995 -3 
Q 672 56 428 153 
L 428 4225 
z
" transform="scale(0.015625)"/>
       <path id="LiberationSerif-4f" d="M 1147 219 
L 1650 141 
L 1650 0 
L 128 0 
L 128 141 
L 628 219 
L 628 4225 
L 128 4300 
L 128 4441 
L 1147 4441 
L 1147 219 
z
" transform="scale(0.015625)"/>
       <path id="LiberationSerif-51" d="M 1013 2700 
Q 1253 2838 1525 2927 
Q 1797 3016 1978 3016 
Q 2359 3016 2553 2794 
Q 2747 2572 2747 2150 
L 2747 219 
L 3103 141 
L 3103 0 
L 1838 0 
L 1838 141 
L 2228 219 
L 2228 2094 
Q 2228 2353 2101 2501 
Q 1975 2650 1709 2650 
Q 1428 2650 1019 2559 
L 1019 219 
L 1416 141 
L 1416 0 
L 147 0 
L 147 141 
L 500 219 
L 500 2719 
L 147 2797 
L 147 2938 
L 984 2938 
L 1013 2700 
z
" transform="scale(0.015625)"/>
       <path id="LiberationSerif-2e" d="M 4228 4191 
L 4228 4025 
L 3744 3944 
L 2313 2544 
L 4103 250 
L 4556 166 
L 4556 0 
L 3531 0 
L 1891 2119 
L 1325 1666 
L 1325 250 
L 1925 166 
L 1925 0 
L 184 0 
L 184 166 
L 722 250 
L 722 3944 
L 184 4025 
L 184 4191 
L 1863 4191 
L 1863 4025 
L 1325 3944 
L 1325 1969 
L 3331 3944 
L 2916 4025 
L 2916 4191 
L 4228 4191 
z
" transform="scale(0.015625)"/>
       <path id="LiberationSerif-f" d="M 1197 153 
Q 1197 -275 948 -564 
Q 700 -853 244 -984 
L 244 -744 
Q 794 -569 794 -219 
Q 794 -156 747 -106 
Q 700 -56 584 3 
Q 372 113 372 313 
Q 372 481 478 570 
Q 584 659 750 659 
Q 950 659 1073 515 
Q 1197 372 1197 153 
z
" transform="scale(0.015625)"/>
      </defs>
      <use xlink:href="#LiberationSerif-24"/>
      <use xlink:href="#LiberationSerif-1d" transform="translate(72.21875 0)"/>
      <use xlink:href="#LiberationSerif-3" transform="translate(100 0)"/>
      <use xlink:href="#LiberationSerif-45" transform="translate(125 0)"/>
      <use xlink:href="#LiberationSerif-44" transform="translate(175 0)"/>
      <use xlink:href="#LiberationSerif-56" transform="translate(219.390625 0)"/>
      <use xlink:href="#LiberationSerif-48" transform="translate(258.3125 0)"/>
      <use xlink:href="#LiberationSerif-4f" transform="translate(302.703125 0)"/>
      <use xlink:href="#LiberationSerif-4c" transform="translate(330.484375 0)"/>
      <use xlink:href="#LiberationSerif-51" transform="translate(358.265625 0)"/>
      <use xlink:href="#LiberationSerif-48" transform="translate(408.265625 0)"/>
      <use xlink:href="#LiberationSerif-3" transform="translate(452.65625 0)"/>
      <use xlink:href="#LiberationSerif-b" transform="translate(477.65625 0)"/>
      <use xlink:href="#LiberationSerif-2e" transform="translate(510.953125 0)"/>
      <use xlink:href="#LiberationSerif-53" transform="translate(583.171875 0)"/>
      <use xlink:href="#LiberationSerif-3" transform="translate(633.171875 0)"/>
      <use xlink:href="#LiberationSerif-14" transform="translate(658.171875 0)"/>
      <use xlink:href="#LiberationSerif-11" transform="translate(708.171875 0)"/>
      <use xlink:href="#LiberationSerif-18" transform="translate(733.171875 0)"/>
      <use xlink:href="#LiberationSerif-19" transform="translate(783.171875 0)"/>
      <use xlink:href="#LiberationSerif-f" transform="translate(833.171875 0)"/>
      <use xlink:href="#LiberationSerif-3" transform="translate(858.171875 0)"/>
      <use xlink:href="#LiberationSerif-2e" transform="translate(883.171875 0)"/>
      <use xlink:href="#LiberationSerif-4c" transform="translate(955.390625 0)"/>
      <use xlink:href="#LiberationSerif-3" transform="translate(983.171875 0)"/>
      <use xlink:href="#LiberationSerif-17" transform="translate(1008.171875 0)"/>
      <use xlink:href="#LiberationSerif-14" transform="translate(1058.171875 0)"/>
      <use xlink:href="#LiberationSerif-11" transform="translate(1108.171875 0)"/>
      <use xlink:href="#LiberationSerif-15" transform="translate(1133.171875 0)"/>
      <use xlink:href="#LiberationSerif-c" transform="translate(1183.171875 0)"/>
     </g>
    </g>
    <g id="line2d_39">
     <path d="M 201.670527 327.453266 
L 213.670527 327.453266 
L 225.670527 327.453266 
" style="fill: none; stroke: #2471a3; stroke-width: 1.4; stroke-linecap: square"/>
    </g>
    <g id="text_20">
     <!-- C3: Kp 0.8 -->
     <g transform="translate(235.270527 331.653266) scale(0.12 -0.12)">
      <defs>
       <path id="LiberationSerif-26" d="M 2419 -63 
Q 1400 -63 831 492 
Q 263 1047 263 2047 
Q 263 3128 809 3683 
Q 1356 4238 2431 4238 
Q 3084 4238 3834 4078 
L 3853 3163 
L 3647 3163 
L 3553 3706 
Q 3334 3841 3045 3914 
Q 2756 3988 2456 3988 
Q 1653 3988 1284 3516 
Q 916 3044 916 2053 
Q 916 1141 1302 659 
Q 1688 178 2425 178 
Q 2781 178 3097 264 
Q 3413 350 3597 494 
L 3713 1119 
L 3916 1119 
L 3897 134 
Q 3209 -63 2419 -63 
z
" transform="scale(0.015625)"/>
       <path id="LiberationSerif-16" d="M 2950 1141 
Q 2950 575 2562 256 
Q 2175 -63 1466 -63 
Q 872 -63 341 72 
L 306 953 
L 513 953 
L 653 366 
Q 775 297 998 247 
Q 1222 197 1416 197 
Q 1906 197 2140 422 
Q 2375 647 2375 1172 
Q 2375 1584 2159 1798 
Q 1944 2013 1491 2034 
L 1044 2059 
L 1044 2316 
L 1491 2344 
Q 1844 2363 2012 2563 
Q 2181 2763 2181 3169 
Q 2181 3591 1998 3783 
Q 1816 3975 1416 3975 
Q 1250 3975 1069 3929 
Q 888 3884 750 3809 
L 641 3297 
L 434 3297 
L 434 4103 
Q 744 4184 969 4211 
Q 1194 4238 1416 4238 
Q 2759 4238 2759 3206 
Q 2759 2772 2520 2514 
Q 2281 2256 1844 2194 
Q 2413 2128 2681 1867 
Q 2950 1606 2950 1141 
z
" transform="scale(0.015625)"/>
      </defs>
      <use xlink:href="#LiberationSerif-26"/>
      <use xlink:href="#LiberationSerif-16" transform="translate(66.703125 0)"/>
      <use xlink:href="#LiberationSerif-1d" transform="translate(116.703125 0)"/>
      <use xlink:href="#LiberationSerif-3" transform="translate(144.484375 0)"/>
      <use xlink:href="#LiberationSerif-2e" transform="translate(169.484375 0)"/>
      <use xlink:href="#LiberationSerif-53" transform="translate(241.703125 0)"/>
      <use xlink:href="#LiberationSerif-3" transform="translate(291.703125 0)"/>
      <use xlink:href="#LiberationSerif-13" transform="translate(316.703125 0)"/>
      <use xlink:href="#LiberationSerif-11" transform="translate(366.703125 0)"/>
      <use xlink:href="#LiberationSerif-1b" transform="translate(391.703125 0)"/>
     </g>
    </g>
    <g id="line2d_40">
     <path d="M 201.670527 344.44311 
L 213.670527 344.44311 
L 225.670527 344.44311 
" style="fill: none; stroke: #5dade2; stroke-width: 1.4; stroke-linecap: square"/>
    </g>
    <g id="text_21">
     <!-- F2: Kp 0.8, Ki 25.0 -->
     <g transform="translate(235.270527 348.64311) scale(0.12 -0.12)">
      <defs>
       <path id="LiberationSerif-29" d="M 1325 1881 
L 1325 250 
L 2022 166 
L 2022 0 
L 225 0 
L 225 166 
L 722 250 
L 722 3944 
L 184 4025 
L 184 4191 
L 3328 4191 
L 3328 3188 
L 3122 3188 
L 3022 3866 
Q 2672 3909 2009 3909 
L 1325 3909 
L 1325 2163 
L 2559 2163 
L 2656 2663 
L 2847 2663 
L 2847 1375 
L 2656 1375 
L 2559 1881 
L 1325 1881 
z
" transform="scale(0.015625)"/>
      </defs>
      <use xlink:href="#LiberationSerif-29"/>
      <use xlink:href="#LiberationSerif-15" transform="translate(55.609375 0)"/>
      <use xlink:href="#LiberationSerif-1d" transform="translate(105.609375 0)"/>
      <use xlink:href="#LiberationSerif-3" transform="translate(133.390625 0)"/>
      <use xlink:href="#LiberationSerif-2e" transform="translate(158.390625 0)"/>
      <use xlink:href="#LiberationSerif-53" transform="translate(230.609375 0)"/>
      <use xlink:href="#LiberationSerif-3" transform="translate(280.609375 0)"/>
      <use xlink:href="#LiberationSerif-13" transform="translate(305.609375 0)"/>
      <use xlink:href="#LiberationSerif-11" transform="translate(355.609375 0)"/>
      <use xlink:href="#LiberationSerif-1b" transform="translate(380.609375 0)"/>
      <use xlink:href="#LiberationSerif-f" transform="translate(430.609375 0)"/>
      <use xlink:href="#LiberationSerif-3" transform="translate(455.609375 0)"/>
      <use xlink:href="#LiberationSerif-2e" transform="translate(480.609375 0)"/>
      <use xlink:href="#LiberationSerif-4c" transform="translate(552.828125 0)"/>
      <use xlink:href="#LiberationSerif-3" transform="translate(580.609375 0)"/>
      <use xlink:href="#LiberationSerif-15" transform="translate(605.609375 0)"/>
      <use xlink:href="#LiberationSerif-18" transform="translate(655.609375 0)"/>
      <use xlink:href="#LiberationSerif-11" transform="translate(705.609375 0)"/>
      <use xlink:href="#LiberationSerif-13" transform="translate(730.609375 0)"/>
     </g>
    </g>
    <g id="line2d_41">
     <path d="M 201.670527 361.432954 
L 213.670527 361.432954 
L 225.670527 361.432954 
" style="fill: none; stroke: #154360; stroke-width: 1.4; stroke-linecap: square"/>
    </g>
    <g id="text_22">
     <!-- F4: Kp 0.8, Ki 15.0 -->
     <g transform="translate(235.270527 365.632954) scale(0.12 -0.12)">
      <use xlink:href="#LiberationSerif-29"/>
      <use xlink:href="#LiberationSerif-17" transform="translate(55.609375 0)"/>
      <use xlink:href="#LiberationSerif-1d" transform="translate(105.609375 0)"/>
      <use xlink:href="#LiberationSerif-3" transform="translate(133.390625 0)"/>
      <use xlink:href="#LiberationSerif-2e" transform="translate(158.390625 0)"/>
      <use xlink:href="#LiberationSerif-53" transform="translate(230.609375 0)"/>
      <use xlink:href="#LiberationSerif-3" transform="translate(280.609375 0)"/>
      <use xlink:href="#LiberationSerif-13" transform="translate(305.609375 0)"/>
      <use xlink:href="#LiberationSerif-11" transform="translate(355.609375 0)"/>
      <use xlink:href="#LiberationSerif-1b" transform="translate(380.609375 0)"/>
      <use xlink:href="#LiberationSerif-f" transform="translate(430.609375 0)"/>
      <use xlink:href="#LiberationSerif-3" transform="translate(455.609375 0)"/>
      <use xlink:href="#LiberationSerif-2e" transform="translate(480.609375 0)"/>
      <use xlink:href="#LiberationSerif-4c" transform="translate(552.828125 0)"/>
      <use xlink:href="#LiberationSerif-3" transform="translate(580.609375 0)"/>
      <use xlink:href="#LiberationSerif-14" transform="translate(605.609375 0)"/>
      <use xlink:href="#LiberationSerif-18" transform="translate(655.609375 0)"/>
      <use xlink:href="#LiberationSerif-11" transform="translate(705.609375 0)"/>
      <use xlink:href="#LiberationSerif-13" transform="translate(730.609375 0)"/>
     </g>
    </g>
    <g id="line2d_42">
     <path d="M 405.246777 310.463423 
L 417.246777 310.463423 
L 429.246777 310.463423 
" style="fill: none; stroke: #e08a00; stroke-width: 1.4; stroke-linecap: square"/>
    </g>
    <g id="text_23">
     <!-- D3: Kp 1.0, α 0.5 -->
     <g transform="translate(438.846777 314.663423) scale(0.12 -0.12)">
      <defs>
       <path id="LiberationSerif-27" d="M 3713 2125 
Q 3713 3003 3239 3456 
Q 2766 3909 1888 3909 
L 1325 3909 
L 1325 294 
Q 1700 269 2216 269 
Q 2984 269 3348 722 
Q 3713 1175 3713 2125 
z
M 2088 4191 
Q 3247 4191 3806 3673 
Q 4366 3156 4366 2119 
Q 4366 1069 3827 528 
Q 3288 -13 2216 -13 
L 722 0 
L 184 0 
L 184 166 
L 722 250 
L 722 3944 
L 184 4025 
L 184 4191 
L 2088 4191 
z
" transform="scale(0.015625)"/>
       <path id="LiberationSerif-363" d="M 3200 141 
L 3200 0 
L 2538 0 
Q 2422 369 2331 856 
L 2313 856 
Q 2088 428 1944 264 
Q 1800 100 1625 18 
Q 1450 -63 1222 -63 
Q 753 -63 498 321 
Q 244 706 244 1416 
Q 244 2172 564 2595 
Q 884 3019 1466 3019 
Q 1866 3019 2100 2819 
Q 2334 2619 2481 2156 
L 2500 2156 
L 2719 2938 
L 3209 2938 
L 3209 2813 
Q 3138 2700 3041 2478 
Q 2944 2256 2663 1509 
Q 2841 741 3050 188 
L 3200 141 
z
M 2263 1447 
Q 2181 2153 2003 2461 
Q 1825 2769 1513 2769 
Q 809 2769 809 1416 
Q 809 841 956 542 
Q 1103 244 1347 244 
Q 1534 244 1682 362 
Q 1831 481 1954 700 
Q 2078 919 2263 1447 
z
" transform="scale(0.015625)"/>
      </defs>
      <use xlink:href="#LiberationSerif-27"/>
      <use xlink:href="#LiberationSerif-16" transform="translate(72.21875 0)"/>
      <use xlink:href="#LiberationSerif-1d" transform="translate(122.21875 0)"/>
      <use xlink:href="#LiberationSerif-3" transform="translate(150 0)"/>
      <use xlink:href="#LiberationSerif-2e" transform="translate(175 0)"/>
      <use xlink:href="#LiberationSerif-53" transform="translate(247.21875 0)"/>
      <use xlink:href="#LiberationSerif-3" transform="translate(297.21875 0)"/>
      <use xlink:href="#LiberationSerif-14" transform="translate(322.21875 0)"/>
      <use xlink:href="#LiberationSerif-11" transform="translate(372.21875 0)"/>
      <use xlink:href="#LiberationSerif-13" transform="translate(397.21875 0)"/>
      <use xlink:href="#LiberationSerif-f" transform="translate(447.21875 0)"/>
      <use xlink:href="#LiberationSerif-3" transform="translate(472.21875 0)"/>
      <use xlink:href="#LiberationSerif-363" transform="translate(497.21875 0)"/>
      <use xlink:href="#LiberationSerif-3" transform="translate(549.609375 0)"/>
      <use xlink:href="#LiberationSerif-13" transform="translate(574.609375 0)"/>
      <use xlink:href="#LiberationSerif-11" transform="translate(624.609375 0)"/>
      <use xlink:href="#LiberationSerif-18" transform="translate(649.609375 0)"/>
     </g>
    </g>
    <g id="line2d_43">
     <path d="M 405.246777 327.453266 
L 417.246777 327.453266 
L 429.246777 327.453266 
" style="fill: none; stroke: #8e44ad; stroke-width: 1.4; stroke-linecap: square"/>
    </g>
    <g id="text_24">
     <!-- F1: Kp 0.8, α 0.5 -->
     <g transform="translate(438.846777 331.653266) scale(0.12 -0.12)">
      <use xlink:href="#LiberationSerif-29"/>
      <use xlink:href="#LiberationSerif-14" transform="translate(55.609375 0)"/>
      <use xlink:href="#LiberationSerif-1d" transform="translate(105.609375 0)"/>
      <use xlink:href="#LiberationSerif-3" transform="translate(133.390625 0)"/>
      <use xlink:href="#LiberationSerif-2e" transform="translate(158.390625 0)"/>
      <use xlink:href="#LiberationSerif-53" transform="translate(230.609375 0)"/>
      <use xlink:href="#LiberationSerif-3" transform="translate(280.609375 0)"/>
      <use xlink:href="#LiberationSerif-13" transform="translate(305.609375 0)"/>
      <use xlink:href="#LiberationSerif-11" transform="translate(355.609375 0)"/>
      <use xlink:href="#LiberationSerif-1b" transform="translate(380.609375 0)"/>
      <use xlink:href="#LiberationSerif-f" transform="translate(430.609375 0)"/>
      <use xlink:href="#LiberationSerif-3" transform="translate(455.609375 0)"/>
      <use xlink:href="#LiberationSerif-363" transform="translate(480.609375 0)"/>
      <use xlink:href="#LiberationSerif-3" transform="translate(533 0)"/>
      <use xlink:href="#LiberationSerif-13" transform="translate(558 0)"/>
      <use xlink:href="#LiberationSerif-11" transform="translate(608 0)"/>
      <use xlink:href="#LiberationSerif-18" transform="translate(633 0)"/>
     </g>
    </g>
    <g id="line2d_44">
     <path d="M 405.246777 344.44311 
L 417.246777 344.44311 
L 429.246777 344.44311 
" style="fill: none; stroke: #1e8449; stroke-width: 1.4; stroke-linecap: square"/>
    </g>
    <g id="text_25">
     <!-- F3: Kp 0.8, Ki 25.0, α 0.5 -->
     <g transform="translate(438.846777 348.64311) scale(0.12 -0.12)">
      <use xlink:href="#LiberationSerif-29"/>
      <use xlink:href="#LiberationSerif-16" transform="translate(55.609375 0)"/>
      <use xlink:href="#LiberationSerif-1d" transform="translate(105.609375 0)"/>
      <use xlink:href="#LiberationSerif-3" transform="translate(133.390625 0)"/>
      <use xlink:href="#LiberationSerif-2e" transform="translate(158.390625 0)"/>
      <use xlink:href="#LiberationSerif-53" transform="translate(230.609375 0)"/>
      <use xlink:href="#LiberationSerif-3" transform="translate(280.609375 0)"/>
      <use xlink:href="#LiberationSerif-13" transform="translate(305.609375 0)"/>
      <use xlink:href="#LiberationSerif-11" transform="translate(355.609375 0)"/>
      <use xlink:href="#LiberationSerif-1b" transform="translate(380.609375 0)"/>
      <use xlink:href="#LiberationSerif-f" transform="translate(430.609375 0)"/>
      <use xlink:href="#LiberationSerif-3" transform="translate(455.609375 0)"/>
      <use xlink:href="#LiberationSerif-2e" transform="translate(480.609375 0)"/>
      <use xlink:href="#LiberationSerif-4c" transform="translate(552.828125 0)"/>
      <use xlink:href="#LiberationSerif-3" transform="translate(580.609375 0)"/>
      <use xlink:href="#LiberationSerif-15" transform="translate(605.609375 0)"/>
      <use xlink:href="#LiberationSerif-18" transform="translate(655.609375 0)"/>
      <use xlink:href="#LiberationSerif-11" transform="translate(705.609375 0)"/>
      <use xlink:href="#LiberationSerif-13" transform="translate(730.609375 0)"/>
      <use xlink:href="#LiberationSerif-f" transform="translate(780.609375 0)"/>
      <use xlink:href="#LiberationSerif-3" transform="translate(805.609375 0)"/>
      <use xlink:href="#LiberationSerif-363" transform="translate(830.609375 0)"/>
      <use xlink:href="#LiberationSerif-3" transform="translate(883 0)"/>
      <use xlink:href="#LiberationSerif-13" transform="translate(908 0)"/>
      <use xlink:href="#LiberationSerif-11" transform="translate(958 0)"/>
      <use xlink:href="#LiberationSerif-18" transform="translate(983 0)"/>
     </g>
    </g>
   </g>
   <g id="line2d_45">
    <path d="M 88.934527 213.80924 
L 91.878223 174.018533 
L 94.826636 187.759252 
L 97.773574 137.692749 
L 100.722282 96.29308 
L 103.672463 101.657574 
L 106.617338 126.346061 
L 109.563982 161.547954 
L 112.513574 213.80924 
L 115.460218 153.213846 
L 118.408631 161.547954 
L 121.35498 125.714817 
L 124.304867 138.357201 
L 127.250332 204.937191 
L 130.200218 170.78893 
L 133.148631 189.210694 
L 136.095864 143.005482 
L 139.041624 85.543874 
L 141.991805 95.304145 
L 144.937565 125.714817 
L 147.886862 166.170974 
L 150.834096 202.974585 
L 153.783098 157.163636 
L 156.728563 153.611083 
L 159.678449 129.045393 
L 162.628336 157.581385 
L 165.573801 230.36852 
L 168.52074 165.510846 
L 171.470037 183.40195 
L 174.415796 123.91522 
L 177.365093 97.634827 
L 180.312032 95.304145 
L 183.261034 136.496473 
L 186.207973 157.163636 
L 189.156975 190.589104 
L 192.106567 161.547954 
L 195.051442 140.68197 
L 197.999265 143.983422 
L 200.947089 137.692749 
L 203.894322 230.36852 
L 206.842145 165.510846 
L 209.790558 216.693793 
L 212.738086 133.703838 
L 215.685615 82.179204 
L 218.634027 105.676533 
L 221.584798 108.635466 
L 224.529674 173.425524 
L 227.477202 193.803628 
L 230.425025 181.325454 
L 233.372848 147.648681 
L 236.320671 125.714817 
L 239.268494 138.357201 
L 242.217202 208.859705 
L 245.163846 182.311913 
L 248.113143 187.759252 
L 254.008789 95.304145 
L 256.955728 101.657574 
L 259.903551 126.346061 
L 262.851079 178.167256 
L 265.798902 189.210694 
L 268.746431 181.325454 
L 271.694254 152.774771 
L 274.642077 119.713202 
L 277.591079 143.983422 
L 280.541261 215.323864 
L 283.486725 187.759252 
L 286.433369 193.147806 
L 289.381487 152.286836 
L 292.329016 89.577986 
L 295.277133 105.676533 
L 298.225251 109.691722 
L 301.174254 174.673857 
L 304.120013 185.269903 
L 307.068721 152.286836 
L 310.020081 157.382951 
L 312.965251 108.635466 
L 315.911011 145.659354 
L 318.860898 202.974585 
L 321.807836 197.08126 
L 324.755954 207.552607 
L 327.703188 141.677927 
L 330.6516 90.851137 
L 333.598834 98.640874 
L 336.547247 113.070012 
L 339.497723 169.865745 
L 342.442893 201.011055 
L 345.390126 165.927783 
L 348.338244 157.382951 
L 351.285773 104.1963 
L 354.233891 145.659354 
L 357.181714 221.256957 
L 360.130716 189.210694 
L 363.07677 198.391592 
L 366.024593 133.703838 
L 368.976249 86.889003 
L 371.920829 105.676533 
L 374.869242 99.752532 
L 377.81736 173.425524 
L 380.764004 180.009819 
L 383.711827 174.018533 
L 386.659355 192.112081 
L 389.607473 105.676533 
L 392.555002 175.401897 
L 395.504004 169.470024 
L 398.458902 202.974585 
L 401.40024 197.08126 
L 404.347473 119.713202 
L 407.295591 121.71467 
L 410.242235 95.304145 
L 413.190058 117.710791 
L 416.137292 170.78893 
L 419.086294 189.210694 
L 422.033822 166.170974 
L 424.981645 181.325454 
L 427.932121 115.039437 
L 430.877292 161.547954 
L 433.825115 165.927783 
L 436.773233 198.850108 
L 439.720761 207.552607 
L 442.668584 101.657574 
L 445.616407 121.71467 
L 448.56423 104.1963 
L 451.512053 111.29673 
L 454.46135 165.927783 
L 457.411237 194.72162 
L 460.355228 174.673857 
L 463.302756 178.167256 
L 466.250579 117.499957 
L 469.200761 149.637085 
L 472.14652 184.612751 
L 475.094049 169.470024 
L 478.041872 209.478716 
L 480.989695 111.29673 
L 483.938108 121.925301 
L 486.889173 68.964193 
L 489.833164 117.499957 
L 492.780987 157.581385 
L 498.677813 193.147806 
L 501.624457 170.78893 
L 504.57228 141.677927 
L 507.520103 139.580919 
L 510.467926 186.452523 
L 513.415749 187.759252 
L 516.366815 202.974585 
L 519.314638 117.499957 
L 522.259808 133.703838 
L 525.207042 81.931171 
L 528.154865 107.082275 
L 531.102688 179.040158 
L 534.050511 161.547954 
L 536.998334 205.143737 
L 539.946157 161.547954 
L 542.894275 135.17387 
L 545.845046 137.692749 
L 548.789627 170.78893 
L 551.738039 201.011055 
L 554.686452 207.552607 
L 557.633391 125.714817 
L 560.581509 124.381848 
L 563.529037 81.505955 
L 566.477155 99.752532 
L 569.424683 169.470024 
L 572.372801 174.018533 
L 575.323867 193.803628 
L 578.268153 145.659354 
L 581.21627 143.983422 
L 584.164094 149.040656 
L 587.111917 170.303065 
L 590.05974 182.311913 
L 593.006384 218.13533 
L 595.955091 136.496473 
L 598.90262 121.925301 
L 601.850737 85.543874 
L 604.800624 91.593629 
L 607.746973 193.147806 
L 610.693322 161.547954 
L 613.642619 215.323864 
L 616.589853 148.38136 
L 619.537676 123.91522 
L 622.485499 143.983422 
L 625.433322 144.863364 
L 628.381146 192.112081 
L 631.328969 207.095034 
L 634.283572 161.547954 
L 637.22432 113.703142 
L 640.172143 77.46423 
L 643.119966 108.635466 
L 646.067789 197.08126 
L 649.015613 166.170974 
L 651.963141 193.147806 
L 654.915975 157.163636 
L 657.86144 140.68197 
L 660.807789 148.38136 
L 663.760034 149.637085 
L 666.703141 198.391592 
L 669.651848 198.850108 
L 672.599082 157.163636 
L 675.5472 109.691722 
L 675.5472 109.691722 
" clip-path="url(#pe41c480e9c)" style="fill: none; stroke: #c0392b; stroke-width: 2.38; stroke-linecap: square"/>
   </g>
  </g>
 </g>
 <defs>
  <clipPath id="pe41c480e9c">
   <rect x="59.597305" y="32.02125" width="645.282695" height="225.16425"/>
  </clipPath>
 </defs>
</svg>
